<svg width="119" height="40" viewBox="0 0 119 40" fill="none" xmlns="http://www.w3.org/2000/svg">
<g clip-path="url(#clip0_0_12251)">
<path d="M117.01 25.4509C115.507 25.9526 114.003 26.3109 112.5 26.526C111.005 26.75 109.475 26.8619 107.909 26.8619C105.908 26.8619 104.125 26.6469 102.559 26.2169C101.002 25.7779 99.6901 25.1463 98.6232 24.3221C97.5554 23.4979 96.7414 22.4901 96.1806 21.2986C95.6206 20.107 95.3406 18.7588 95.3406 17.2537C95.3406 15.8561 95.6206 14.5615 96.1806 13.3701C96.7501 12.1696 97.551 11.1304 98.5823 10.2524C99.6232 9.36553 100.878 8.67569 102.346 8.18296C103.814 7.68126 105.45 7.43042 107.256 7.43042C108.92 7.43042 110.441 7.65887 111.82 8.11577C113.207 8.5637 114.394 9.2311 115.382 10.1181C116.378 11.0049 117.148 12.0979 117.69 13.3969C118.241 14.696 118.518 16.1921 118.518 17.8853V19.1215H100.451C100.611 19.7039 100.874 20.2369 101.238 20.7207C101.612 21.2045 102.114 21.6166 102.746 21.957C103.377 22.2974 104.151 22.5617 105.068 22.7499C105.993 22.938 107.095 23.0321 108.377 23.0321C109.284 23.0321 110.174 22.9783 111.046 22.8708C111.917 22.7543 112.731 22.6065 113.488 22.4274C114.243 22.2392 114.924 22.0332 115.528 21.8092C116.142 21.5852 116.636 21.3613 117.01 21.1373V25.4509ZM113.594 15.4664C113.549 15.0095 113.412 14.5392 113.181 14.0554C112.958 13.5627 112.602 13.1192 112.113 12.725C111.623 12.3308 110.983 12.0083 110.191 11.7574C109.4 11.4977 108.412 11.3678 107.229 11.3678C106.117 11.3678 105.156 11.5067 104.347 11.7844C103.538 12.0621 102.857 12.407 102.306 12.8191C101.763 13.2312 101.341 13.6747 101.038 14.1494C100.735 14.6243 100.54 15.0633 100.451 15.4664H113.594Z" fill="#2F3D46"/>
<path d="M85.76 11.9188V26.3648H80.8096V11.9188H73.0305V7.90088H93.5527V11.9188H85.76Z" fill="#2F3D46"/>
<path d="M55.192 26.3648H50.2417V7.90088H62.651C63.9853 7.90088 65.115 8.03974 66.0401 8.31746C66.9742 8.59517 67.7303 8.98937 68.3086 9.49997C68.8956 10.0107 69.3181 10.6288 69.5761 11.3545C69.843 12.0712 69.9765 12.8729 69.9765 13.7599C69.9765 14.5393 69.8653 15.2201 69.6428 15.8025C69.4294 16.3848 69.1358 16.8865 68.7622 17.3075C68.3975 17.7196 67.9705 18.069 67.4813 18.3557C66.992 18.6424 66.476 18.8798 65.9334 19.068L71.9379 26.3648H66.1469L60.5961 19.5651H55.192V26.3648ZM64.9727 13.733C64.9727 13.3747 64.9238 13.0701 64.826 12.8192C64.737 12.5684 64.5768 12.3668 64.3456 12.2145C64.1143 12.0533 63.8029 11.9368 63.4115 11.8651C63.029 11.7935 62.5487 11.7576 61.9705 11.7576H55.192V15.7084H61.9705C62.5487 15.7084 63.029 15.6726 63.4115 15.6009C63.8029 15.5293 64.1143 15.4173 64.3456 15.2649C64.5768 15.1037 64.737 14.8976 64.826 14.6468C64.9238 14.396 64.9727 14.0914 64.9727 13.733Z" fill="#2F3D46"/>
<path d="M45.7322 17.1461C45.7322 18.7319 45.4431 20.1339 44.8649 21.3523C44.2867 22.5617 43.4594 23.5741 42.3831 24.3893C41.3067 25.2046 39.9991 25.8227 38.4601 26.2438C36.9301 26.6559 35.2088 26.8619 33.2963 26.8619C31.3837 26.8619 29.6535 26.6559 28.1057 26.2438C26.5668 25.8227 25.2547 25.2046 24.1694 24.3893C23.0842 23.5741 22.248 22.5617 21.6609 21.3523C21.0738 20.1339 20.7803 18.7319 20.7803 17.1461C20.7803 15.5605 21.0738 14.1629 21.6609 12.9534C22.248 11.7351 23.0842 10.7183 24.1694 9.90301C25.2547 9.08779 26.5668 8.47412 28.1057 8.06201C29.6535 7.64095 31.3837 7.43042 33.2963 7.43042C35.2088 7.43042 36.9301 7.64095 38.4601 8.06201C39.9991 8.47412 41.3067 9.08779 42.3831 9.90301C43.4594 10.7183 44.2867 11.7351 44.8649 12.9534C45.4431 14.1629 45.7322 15.5605 45.7322 17.1461ZM40.7284 17.1461C40.7284 16.4563 40.6172 15.771 40.3949 15.0901C40.1814 14.4003 39.7944 13.7821 39.234 13.2357C38.6824 12.6892 37.9264 12.2457 36.9657 11.9053C36.005 11.5648 34.7818 11.3947 33.2963 11.3947C32.2999 11.3947 31.4238 11.4753 30.6676 11.6366C29.9115 11.7888 29.2577 12.0039 28.7062 12.2815C28.1546 12.5593 27.6921 12.8863 27.3184 13.2626C26.9449 13.6299 26.6469 14.0285 26.4244 14.4586C26.2021 14.8796 26.0419 15.3231 25.9441 15.7889C25.8551 16.2458 25.8106 16.6982 25.8106 17.1461C25.8106 17.6031 25.8551 18.0644 25.9441 18.5303C26.0419 18.9961 26.2021 19.4441 26.4244 19.8741C26.6469 20.2952 26.9449 20.6894 27.3184 21.0567C27.6921 21.424 28.1546 21.7465 28.7062 22.0242C29.2577 22.2929 29.9115 22.508 30.6676 22.6692C31.4238 22.8215 32.2999 22.8977 33.2963 22.8977C34.7818 22.8977 36.005 22.7274 36.9657 22.387C37.9264 22.0466 38.6824 21.6031 39.234 21.0567C39.7944 20.5101 40.1814 19.8965 40.3949 19.2156C40.6172 18.5258 40.7284 17.836 40.7284 17.1461Z" fill="#2F3D46"/>
<path d="M5.20744 11.8382V15.05H17.123V18.9873H5.20744V26.3648H0.25708V7.90088H17.7768V11.8382H5.20744Z" fill="#2F3D46"/>
<path d="M114.072 37.5095H112.37V36.4285H114.072C114.335 36.4285 114.549 36.3854 114.714 36.2992C114.88 36.2099 115.001 36.0867 115.076 35.9297C115.153 35.7726 115.191 35.5955 115.191 35.3985C115.191 35.1983 115.153 35.0119 115.076 34.8395C115.001 34.6671 114.88 34.5285 114.714 34.4238C114.549 34.3191 114.335 34.2667 114.072 34.2667H112.847V39.9069H111.471V33.1812H114.072C114.595 33.1812 115.043 33.2766 115.416 33.4676C115.792 33.6554 116.08 33.9157 116.278 34.2482C116.477 34.5808 116.576 34.9612 116.576 35.3892C116.576 35.8234 116.477 36.1992 116.278 36.5163C116.08 36.8335 115.792 37.0784 115.416 37.2508C115.043 37.4232 114.595 37.5095 114.072 37.5095Z" fill="#2F3D46"/>
<path d="M100.044 33.1812H101.415V37.625C101.415 38.1424 101.305 38.5781 101.085 38.9323C100.867 39.2864 100.567 39.5528 100.181 39.7314C99.7988 39.91 99.3587 39.9993 98.8605 39.9993C98.3622 39.9993 97.9188 39.91 97.5301 39.7314C97.1448 39.5528 96.8422 39.2864 96.6222 38.9323C96.4048 38.5781 96.2961 38.1424 96.2961 37.625V33.1812H97.6727V37.625C97.6727 37.9268 97.7196 38.1732 97.8144 38.364C97.9092 38.555 98.0457 38.6952 98.2231 38.7845C98.4031 38.8738 98.6161 38.9184 98.8605 38.9184C99.1109 38.9184 99.324 38.8738 99.4979 38.7845C99.6753 38.6952 99.8101 38.555 99.9014 38.364C99.9961 38.1732 100.044 37.9268 100.044 37.625V33.1812Z" fill="#2F3D46"/>
<path d="M86.4405 36.3876V36.7063C86.4405 37.2175 86.3717 37.6764 86.2342 38.0829C86.0965 38.4894 85.9023 38.8359 85.6516 39.1222C85.4008 39.4055 85.1012 39.6227 84.7526 39.7736C84.407 39.9245 84.0233 40 83.6013 40C83.1824 40 82.7987 39.9245 82.4501 39.7736C82.1045 39.6227 81.8048 39.4055 81.551 39.1222C81.2973 38.8359 81.1 38.4894 80.9594 38.0829C80.8217 37.6764 80.7529 37.2175 80.7529 36.7063V36.3876C80.7529 35.8733 80.8217 35.4145 80.9594 35.011C81.0969 34.6046 81.2911 34.2581 81.5419 33.9717C81.7956 33.6853 82.0954 33.4667 82.4408 33.3157C82.7895 33.1648 83.1732 33.0894 83.5922 33.0894C84.0142 33.0894 84.3979 33.1648 84.7435 33.3157C85.092 33.4667 85.3917 33.6853 85.6424 33.9717C85.8962 34.2581 86.0919 34.6046 86.2295 35.011C86.3702 35.4145 86.4405 35.8733 86.4405 36.3876ZM85.0508 36.7063V36.3784C85.0508 36.0211 85.0186 35.707 84.9544 35.4361C84.8902 35.165 84.7954 34.9371 84.6701 34.7523C84.5447 34.5676 84.3918 34.429 84.2114 34.3366C84.0309 34.2412 83.8245 34.1934 83.5922 34.1934C83.3597 34.1934 83.1534 34.2412 82.9729 34.3366C82.7955 34.429 82.6442 34.5676 82.5188 34.7523C82.3965 34.9371 82.3033 35.165 82.239 35.4361C82.1748 35.707 82.1428 36.0211 82.1428 36.3784V36.7063C82.1428 37.0605 82.1748 37.3746 82.239 37.6487C82.3033 37.9197 82.3981 38.1491 82.5235 38.3369C82.6488 38.5217 82.8017 38.6619 82.9821 38.7574C83.1625 38.8527 83.3689 38.9005 83.6013 38.9005C83.8337 38.9005 84.0401 38.8527 84.2205 38.7574C84.4009 38.6619 84.5523 38.5217 84.6746 38.3369C84.7969 38.1491 84.8902 37.9197 84.9544 37.6487C85.0186 37.3746 85.0508 37.0605 85.0508 36.7063Z" fill="#2F3D46"/>
<path d="M66.0129 33.1812H68.5035C69.0142 33.1812 69.453 33.2581 69.82 33.4121C70.19 33.5661 70.4743 33.794 70.6731 34.0958C70.8719 34.3976 70.9713 34.7686 70.9713 35.2091C70.9713 35.5693 70.9101 35.8789 70.7878 36.1375C70.6685 36.3932 70.4988 36.6072 70.2787 36.7796C70.0615 36.949 69.8062 37.0845 69.5127 37.1861L69.0769 37.4171H66.912L66.9028 36.3362H68.5128C68.7543 36.3362 68.9546 36.2931 69.1136 36.2068C69.2726 36.1206 69.3919 36.0005 69.4714 35.8465C69.554 35.6925 69.5952 35.5139 69.5952 35.3106C69.5952 35.0951 69.5555 34.9088 69.476 34.7518C69.3965 34.5947 69.2757 34.4745 69.1136 34.3914C68.9515 34.3083 68.7482 34.2667 68.5035 34.2667H67.389V39.9069H66.0129V33.1812ZM69.7466 39.9069L68.2238 36.909L69.6778 36.8998L71.2189 39.8423V39.9069H69.7466Z" fill="#2F3D46"/>
<path d="M55.979 36.3916V39.057C55.875 39.1833 55.7145 39.3203 55.4974 39.4681C55.2803 39.6129 55.0005 39.7376 54.6581 39.8423C54.3156 39.947 53.9012 39.9994 53.415 39.9994C52.9839 39.9994 52.591 39.9286 52.2363 39.7868C51.8816 39.6421 51.5757 39.4312 51.3189 39.1541C51.0651 38.8768 50.8694 38.5381 50.7318 38.1378C50.5942 37.7343 50.5254 37.274 50.5254 36.7566V36.3362C50.5254 35.8188 50.5911 35.3585 50.7226 34.955C50.8571 34.5516 51.0483 34.2114 51.296 33.9341C51.5437 33.657 51.8387 33.4461 52.1812 33.3014C52.5236 33.1566 52.9043 33.0842 53.3233 33.0842C53.9043 33.0842 54.3813 33.1797 54.7543 33.3706C55.1274 33.5585 55.4118 33.8202 55.6075 34.1559C55.8063 34.4885 55.9286 34.8703 55.9744 35.3015H54.6397C54.6061 35.0736 54.5418 34.875 54.447 34.7056C54.3523 34.5362 54.2162 34.4038 54.0389 34.3083C53.8645 34.2128 53.6383 34.1651 53.36 34.1651C53.1307 34.1651 52.9258 34.2128 52.7454 34.3083C52.568 34.4007 52.4182 34.5378 52.2959 34.7194C52.1736 34.9012 52.0803 35.126 52.0161 35.3939C51.9518 35.6618 51.9197 35.9728 51.9197 36.327V36.7566C51.9197 37.1076 51.9534 37.4187 52.0207 37.6897C52.0879 37.9576 52.1873 38.184 52.3188 38.3687C52.4534 38.5504 52.6184 38.6874 52.8142 38.7799C53.0099 38.8722 53.2377 38.9184 53.4976 38.9184C53.7147 38.9184 53.8951 38.9 54.0389 38.863C54.1856 38.8261 54.3033 38.7814 54.392 38.729C54.4837 38.6736 54.5541 38.6213 54.603 38.572V37.3802H53.3463V36.3916H55.979Z" fill="#2F3D46"/>
<path d="M109.943 0L111.794 3.87119L104.906 6.40969L103.7 3.88662L109.943 0Z" fill="#16BAFF"/>
</g>
<defs>
<clipPath id="clip0_0_12251">
<rect width="118.261" height="40" fill="white" transform="translate(0.25708)"/>
</clipPath>
</defs>
</svg>
