<svg width="228" height="475" viewBox="0 0 228 475" fill="none" xmlns="http://www.w3.org/2000/svg">
<g opacity="0.2">
<line y1="-1" x2="14.5027" y2="-1" transform="matrix(-0.766103 -0.642718 0.642857 -0.765986 21.3691 13.3998)" stroke="#8643FF" stroke-width="2"/>
<line y1="-1" x2="14.5022" y2="-1" transform="matrix(-0.642857 -0.765986 0.766103 -0.642718 52.6631 14.306)" stroke="#8643FF" stroke-width="2"/>
<line y1="-1" x2="14.5018" y2="-1" transform="matrix(-0.500069 -0.865986 0.866065 -0.499931 83.7434 14.7596)" stroke="#8643FF" stroke-width="2"/>
<line y1="-1" x2="14.5014" y2="-1" transform="matrix(-0.342076 -0.939672 0.939713 -0.341965 114.66 15.2121)" stroke="#8643FF" stroke-width="2"/>
<line y1="-1" x2="14.5012" y2="-1" transform="matrix(-0.173679 -0.984802 0.984813 -0.173617 145.463 15.6658)" stroke="#8643FF" stroke-width="2"/>
<line x1="175.206" y1="15.6658" x2="175.206" y2="1.16465" stroke="#8643FF" stroke-width="2"/>
<line y1="-1" x2="14.5012" y2="-1" transform="matrix(0.173679 -0.984802 0.984813 0.173617 206.95 15.6658)" stroke="#8643FF" stroke-width="2"/>
<line y1="-1" x2="14.5014" y2="-1" transform="matrix(0.342076 -0.939672 0.939713 0.341965 205.122 40.5895)" stroke="#8643FF" stroke-width="2"/>
<line y1="-1" x2="14.5022" y2="-1" transform="matrix(-0.642857 -0.765986 0.766102 -0.642718 20.0318 39.6834)" stroke="#8643FF" stroke-width="2"/>
<line y1="-1" x2="14.5018" y2="-1" transform="matrix(-0.500069 -0.865986 0.866065 -0.499931 51.1121 40.1359)" stroke="#8643FF" stroke-width="2"/>
<line y1="-1" x2="14.5014" y2="-1" transform="matrix(-0.342076 -0.939672 0.939713 -0.341965 82.024 40.5895)" stroke="#8643FF" stroke-width="2"/>
<line y1="-1" x2="14.5012" y2="-1" transform="matrix(-0.173679 -0.984802 0.984813 -0.173617 112.827 41.042)" stroke="#8643FF" stroke-width="2"/>
<line x1="142.571" y1="41.042" x2="142.571" y2="26.5409" stroke="#8643FF" stroke-width="2"/>
<line y1="-1" x2="14.5012" y2="-1" transform="matrix(0.173679 -0.984802 0.984813 0.173617 174.319 41.042)" stroke="#8643FF" stroke-width="2"/>
<line y1="-1" x2="14.5014" y2="-1" transform="matrix(0.342076 -0.939672 0.939713 0.341965 172.486 65.9669)" stroke="#8643FF" stroke-width="2"/>
<line y1="-1" x2="14.5018" y2="-1" transform="matrix(0.500069 -0.865986 0.866065 0.499931 203.402 65.5133)" stroke="#8643FF" stroke-width="2"/>
<line y1="-1" x2="14.5018" y2="-1" transform="matrix(-0.500069 -0.865986 0.866065 -0.499931 18.4762 65.5133)" stroke="#8643FF" stroke-width="2"/>
<line y1="-1" x2="14.5014" y2="-1" transform="matrix(-0.342075 -0.939672 0.939713 -0.341965 49.3928 65.9669)" stroke="#8643FF" stroke-width="2"/>
<line y1="-1" x2="14.5012" y2="-1" transform="matrix(-0.173679 -0.984802 0.984813 -0.173617 80.1956 66.4194)" stroke="#8643FF" stroke-width="2"/>
<line x1="109.939" y1="66.4194" x2="109.939" y2="51.9183" stroke="#8643FF" stroke-width="2"/>
<line y1="-1" x2="14.5012" y2="-1" transform="matrix(0.173679 -0.984802 0.984813 0.173617 141.683 66.4194)" stroke="#8643FF" stroke-width="2"/>
<line y1="-1" x2="14.5014" y2="-1" transform="matrix(0.342076 -0.939672 0.939713 0.341964 139.854 91.3432)" stroke="#8643FF" stroke-width="2"/>
<line y1="-1" x2="14.5018" y2="-1" transform="matrix(0.500068 -0.865986 0.866065 0.499932 170.766 90.8907)" stroke="#8643FF" stroke-width="2"/>
<line y1="-1" x2="14.5022" y2="-1" transform="matrix(0.642857 -0.765987 0.766102 0.642719 201.847 90.4371)" stroke="#8643FF" stroke-width="2"/>
<line y1="-1" x2="14.5014" y2="-1" transform="matrix(-0.342076 -0.939672 0.939713 -0.341965 16.7569 91.3432)" stroke="#8643FF" stroke-width="2"/>
<line y1="-1" x2="14.5012" y2="-1" transform="matrix(-0.173679 -0.984802 0.984813 -0.173617 47.5597 91.7968)" stroke="#8643FF" stroke-width="2"/>
<line x1="77.3033" y1="91.7968" x2="77.3033" y2="77.2957" stroke="#8643FF" stroke-width="2"/>
<line y1="-1" x2="14.5012" y2="-1" transform="matrix(0.173679 -0.984802 0.984813 0.173617 109.052 91.7968)" stroke="#8643FF" stroke-width="2"/>
<line y1="-1" x2="14.5014" y2="-1" transform="matrix(0.342075 -0.939673 0.939713 0.341965 107.219 116.721)" stroke="#8643FF" stroke-width="2"/>
<line y1="-1" x2="14.5018" y2="-1" transform="matrix(0.500069 -0.865986 0.866065 0.499931 138.135 116.267)" stroke="#8643FF" stroke-width="2"/>
<line y1="-1" x2="14.5022" y2="-1" transform="matrix(0.642857 -0.765986 0.766103 0.642718 169.215 115.814)" stroke="#8643FF" stroke-width="2"/>
<line y1="-1" x2="14.5027" y2="-1" transform="matrix(0.766102 -0.642718 0.642857 0.765986 200.509 114.907)" stroke="#8643FF" stroke-width="2"/>
<line y1="-1" x2="14.5012" y2="-1" transform="matrix(-0.173679 -0.984802 0.984813 -0.173617 14.9283 117.173)" stroke="#8643FF" stroke-width="2"/>
<line x1="44.672" y1="117.173" x2="44.672" y2="102.672" stroke="#8643FF" stroke-width="2"/>
<line y1="-1" x2="14.5012" y2="-1" transform="matrix(0.173679 -0.984802 0.984813 0.173617 76.4157 117.173)" stroke="#8643FF" stroke-width="2"/>
<line y1="-1" x2="14.5014" y2="-1" transform="matrix(0.342075 -0.939673 0.939713 0.341965 74.5872 142.097)" stroke="#8643FF" stroke-width="2"/>
<line y1="-1" x2="14.5018" y2="-1" transform="matrix(0.500069 -0.865986 0.866065 0.499931 105.499 141.644)" stroke="#8643FF" stroke-width="2"/>
<line y1="-1" x2="14.5022" y2="-1" transform="matrix(0.642857 -0.765986 0.766103 0.642718 136.579 141.191)" stroke="#8643FF" stroke-width="2"/>
<line y1="-1" x2="14.5027" y2="-1" transform="matrix(0.766102 -0.642718 0.642857 0.765986 167.873 140.285)" stroke="#8643FF" stroke-width="2"/>
<line y1="-1" x2="14.5031" y2="-1" transform="matrix(0.866066 -0.49993 0.50007 0.865985 199.422 138.925)" stroke="#8643FF" stroke-width="2"/>
<line x1="12.0361" y1="142.55" x2="12.0361" y2="128.049" stroke="#8643FF" stroke-width="2"/>
<line y1="-1" x2="14.5012" y2="-1" transform="matrix(0.173679 -0.984802 0.984813 0.173617 43.7844 142.55)" stroke="#8643FF" stroke-width="2"/>
<line y1="-1" x2="14.5014" y2="-1" transform="matrix(0.342076 -0.939672 0.939713 0.341964 41.9513 167.474)" stroke="#8643FF" stroke-width="2"/>
<line y1="-1" x2="14.5018" y2="-1" transform="matrix(0.500069 -0.865986 0.866065 0.499931 72.8678 167.021)" stroke="#8643FF" stroke-width="2"/>
<line y1="-1" x2="14.5022" y2="-1" transform="matrix(0.642857 -0.765987 0.766102 0.642719 103.948 166.568)" stroke="#8643FF" stroke-width="2"/>
<line y1="-1" x2="14.5027" y2="-1" transform="matrix(0.766102 -0.642719 0.642856 0.765987 135.242 165.662)" stroke="#8643FF" stroke-width="2"/>
<line y1="-1" x2="14.5031" y2="-1" transform="matrix(0.866065 -0.499931 0.500069 0.865986 166.786 164.302)" stroke="#8643FF" stroke-width="2"/>
<line y1="-1" x2="14.5035" y2="-1" transform="matrix(0.939713 -0.341965 0.342076 0.939672 198.617 163.396)" stroke="#8643FF" stroke-width="2"/>
<line y1="-1" x2="14.5012" y2="-1" transform="matrix(0.173679 -0.984802 0.984813 0.173617 11.1485 167.928)" stroke="#8643FF" stroke-width="2"/>
<line y1="-1" x2="14.5014" y2="-1" transform="matrix(0.342076 -0.939672 0.939713 0.341964 9.32001 192.852)" stroke="#8643FF" stroke-width="2"/>
<line y1="-1" x2="14.5018" y2="-1" transform="matrix(0.500069 -0.865986 0.866065 0.499931 40.2319 192.398)" stroke="#8643FF" stroke-width="2"/>
<line y1="-1" x2="14.5022" y2="-1" transform="matrix(0.642857 -0.765986 0.766103 0.642718 71.3122 191.944)" stroke="#8643FF" stroke-width="2"/>
<line y1="-1" x2="14.5027" y2="-1" transform="matrix(0.766103 -0.642718 0.642857 0.765986 102.606 191.038)" stroke="#8643FF" stroke-width="2"/>
<line y1="-1" x2="14.5031" y2="-1" transform="matrix(0.866065 -0.499932 0.500068 0.865986 134.155 189.678)" stroke="#8643FF" stroke-width="2"/>
<line y1="-1" x2="14.5035" y2="-1" transform="matrix(0.939713 -0.341965 0.342076 0.939672 165.986 188.772)" stroke="#8643FF" stroke-width="2"/>
<line y1="-1" x2="14.5037" y2="-1" transform="matrix(0.984813 -0.173618 0.173679 0.984802 198.13 187.414)" stroke="#8643FF" stroke-width="2"/>
<line y1="-1" x2="14.5018" y2="-1" transform="matrix(0.500069 -0.865986 0.866065 0.499931 7.60065 217.775)" stroke="#8643FF" stroke-width="2"/>
<line y1="-1" x2="14.5022" y2="-1" transform="matrix(0.642857 -0.765987 0.766102 0.642718 38.6809 217.322)" stroke="#8643FF" stroke-width="2"/>
<line y1="-1" x2="14.5027" y2="-1" transform="matrix(0.766103 -0.642718 0.642857 0.765986 69.9749 216.416)" stroke="#8643FF" stroke-width="2"/>
<line y1="-1" x2="14.5031" y2="-1" transform="matrix(0.866065 -0.499931 0.500069 0.865986 101.519 215.056)" stroke="#8643FF" stroke-width="2"/>
<line y1="-1" x2="14.5035" y2="-1" transform="matrix(0.939712 -0.341966 0.342075 0.939673 133.35 214.15)" stroke="#8643FF" stroke-width="2"/>
<line y1="-1" x2="14.5037" y2="-1" transform="matrix(0.984813 -0.173618 0.173679 0.984802 165.495 212.79)" stroke="#8643FF" stroke-width="2"/>
<line x1="216.093" y1="212.43" x2="201.589" y2="212.43" stroke="#8643FF" stroke-width="2"/>
<line y1="-1" x2="14.5022" y2="-1" transform="matrix(0.642857 -0.765986 0.766103 0.642718 6.04504 242.699)" stroke="#8643FF" stroke-width="2"/>
<line y1="-1" x2="14.5027" y2="-1" transform="matrix(0.766102 -0.642719 0.642856 0.765987 37.3391 241.792)" stroke="#8643FF" stroke-width="2"/>
<line y1="-1" x2="14.5031" y2="-1" transform="matrix(0.866066 -0.499931 0.500069 0.865985 68.8878 240.433)" stroke="#8643FF" stroke-width="2"/>
<line y1="-1" x2="14.5035" y2="-1" transform="matrix(0.939713 -0.341964 0.342076 0.939672 100.719 239.527)" stroke="#8643FF" stroke-width="2"/>
<line y1="-1" x2="14.5037" y2="-1" transform="matrix(0.984813 -0.173617 0.17368 0.984802 132.863 238.167)" stroke="#8643FF" stroke-width="2"/>
<line x1="183.461" y1="237.808" x2="168.958" y2="237.808" stroke="#8643FF" stroke-width="2"/>
<line y1="-1" x2="14.5037" y2="-1" transform="matrix(-0.984813 -0.173617 0.17368 -0.984802 215.929 238.167)" stroke="#8643FF" stroke-width="2"/>
<line y1="-1" x2="14.5027" y2="-1" transform="matrix(0.766103 -0.642718 0.642857 0.765986 4.70776 267.169)" stroke="#8643FF" stroke-width="2"/>
<line y1="-1" x2="14.5031" y2="-1" transform="matrix(0.866065 -0.499931 0.500069 0.865985 36.252 265.81)" stroke="#8643FF" stroke-width="2"/>
<line y1="-1" x2="14.5035" y2="-1" transform="matrix(0.939713 -0.341965 0.342075 0.939673 68.0828 264.903)" stroke="#8643FF" stroke-width="2"/>
<line y1="-1" x2="14.5037" y2="-1" transform="matrix(0.984813 -0.173618 0.173679 0.984802 100.227 263.544)" stroke="#8643FF" stroke-width="2"/>
<line x1="150.825" y1="263.185" x2="136.322" y2="263.185" stroke="#8643FF" stroke-width="2"/>
<line y1="-1" x2="14.5037" y2="-1" transform="matrix(-0.984813 -0.173618 0.173679 -0.984802 183.293 263.544)" stroke="#8643FF" stroke-width="2"/>
<line y1="-1" x2="14.5035" y2="-1" transform="matrix(-0.939712 -0.341966 0.342075 -0.939673 215.438 264.903)" stroke="#8643FF" stroke-width="2"/>
<line y1="-1" x2="14.5031" y2="-1" transform="matrix(0.866064 -0.499932 0.500068 0.865986 3.62067 291.187)" stroke="#8643FF" stroke-width="2"/>
<line y1="-1" x2="14.5035" y2="-1" transform="matrix(0.939713 -0.341965 0.342075 0.939673 35.4514 290.281)" stroke="#8643FF" stroke-width="2"/>
<line y1="-1" x2="14.5037" y2="-1" transform="matrix(0.984813 -0.173618 0.173679 0.984802 67.5961 288.921)" stroke="#8643FF" stroke-width="2"/>
<line y1="-1" x2="14.5031" y2="-1" transform="matrix(-0.866064 -0.499932 0.500068 -0.865986 214.637 291.187)" stroke="#8643FF" stroke-width="2"/>
<line x1="118.194" y1="288.561" x2="103.69" y2="288.561" stroke="#8643FF" stroke-width="2"/>
<line y1="-1" x2="14.5037" y2="-1" transform="matrix(-0.984813 -0.173618 0.173679 -0.984802 150.662 288.921)" stroke="#8643FF" stroke-width="2"/>
<line y1="-1" x2="14.5035" y2="-1" transform="matrix(-0.939712 -0.341966 0.342075 -0.939673 182.806 290.281)" stroke="#8643FF" stroke-width="2"/>
<line y1="-1" x2="14.5035" y2="-1" transform="matrix(0.939713 -0.341965 0.342075 0.939673 2.81555 315.657)" stroke="#8643FF" stroke-width="2"/>
<line y1="-1" x2="14.5037" y2="-1" transform="matrix(0.984814 -0.173616 0.173681 0.984802 34.9602 314.298)" stroke="#8643FF" stroke-width="2"/>
<line y1="-1" x2="14.5031" y2="-1" transform="matrix(-0.866066 -0.49993 0.50007 -0.865985 182.001 316.564)" stroke="#8643FF" stroke-width="2"/>
<line y1="-1" x2="14.5027" y2="-1" transform="matrix(-0.766102 -0.642718 0.642857 -0.765986 213.55 317.923)" stroke="#8643FF" stroke-width="2"/>
<line x1="85.5583" y1="313.939" x2="71.0545" y2="313.939" stroke="#8643FF" stroke-width="2"/>
<line y1="-1" x2="14.5037" y2="-1" transform="matrix(-0.984814 -0.173616 0.173681 -0.984802 118.026 314.298)" stroke="#8643FF" stroke-width="2"/>
<line y1="-1" x2="14.5035" y2="-1" transform="matrix(-0.939712 -0.341966 0.342075 -0.939673 150.17 315.657)" stroke="#8643FF" stroke-width="2"/>
<line y1="-1" x2="14.5037" y2="-1" transform="matrix(0.984813 -0.173618 0.173679 0.984802 2.32886 339.675)" stroke="#8643FF" stroke-width="2"/>
<line y1="-1" x2="14.5031" y2="-1" transform="matrix(-0.866066 -0.49993 0.50007 -0.865985 149.37 341.941)" stroke="#8643FF" stroke-width="2"/>
<line y1="-1" x2="14.5027" y2="-1" transform="matrix(-0.766102 -0.642718 0.642857 -0.765986 180.914 343.3)" stroke="#8643FF" stroke-width="2"/>
<line y1="-1" x2="14.5022" y2="-1" transform="matrix(-0.642858 -0.765986 0.766103 -0.642718 212.208 344.207)" stroke="#8643FF" stroke-width="2"/>
<line x1="52.9269" y1="339.315" x2="38.4232" y2="339.315" stroke="#8643FF" stroke-width="2"/>
<line y1="-1" x2="14.5037" y2="-1" transform="matrix(-0.984813 -0.173618 0.173679 -0.984802 85.3945 339.675)" stroke="#8643FF" stroke-width="2"/>
<line y1="-1" x2="14.5035" y2="-1" transform="matrix(-0.939713 -0.341965 0.342075 -0.939673 117.539 341.034)" stroke="#8643FF" stroke-width="2"/>
<line y1="-1" x2="14.5031" y2="-1" transform="matrix(-0.866066 -0.499931 0.500069 -0.865985 116.734 367.318)" stroke="#8643FF" stroke-width="2"/>
<line y1="-1" x2="14.5027" y2="-1" transform="matrix(-0.766102 -0.642718 0.642857 -0.765986 148.283 368.677)" stroke="#8643FF" stroke-width="2"/>
<line y1="-1" x2="14.5022" y2="-1" transform="matrix(-0.642858 -0.765986 0.766103 -0.642718 179.577 369.584)" stroke="#8643FF" stroke-width="2"/>
<line y1="-1" x2="14.5018" y2="-1" transform="matrix(-0.500069 -0.865986 0.866065 -0.499931 210.657 370.036)" stroke="#8643FF" stroke-width="2"/>
<line x1="20.2911" y1="364.692" x2="5.7873" y2="364.692" stroke="#8643FF" stroke-width="2"/>
<line y1="-1" x2="14.5037" y2="-1" transform="matrix(-0.984814 -0.173616 0.173681 -0.984802 52.7587 365.052)" stroke="#8643FF" stroke-width="2"/>
<line y1="-1" x2="14.5035" y2="-1" transform="matrix(-0.939713 -0.341964 0.342077 -0.939672 84.9033 366.412)" stroke="#8643FF" stroke-width="2"/>
<line y1="-1" x2="14.5031" y2="-1" transform="matrix(-0.866066 -0.499931 0.500069 -0.865985 84.1027 392.694)" stroke="#8643FF" stroke-width="2"/>
<line y1="-1" x2="14.5027" y2="-1" transform="matrix(-0.766103 -0.642718 0.642857 -0.765986 115.647 394.054)" stroke="#8643FF" stroke-width="2"/>
<line y1="-1" x2="14.5022" y2="-1" transform="matrix(-0.642857 -0.765986 0.766103 -0.642718 146.941 394.96)" stroke="#8643FF" stroke-width="2"/>
<line y1="-1" x2="14.5018" y2="-1" transform="matrix(-0.500068 -0.865986 0.866064 -0.499932 178.021 395.414)" stroke="#8643FF" stroke-width="2"/>
<line y1="-1" x2="14.5014" y2="-1" transform="matrix(-0.342076 -0.939672 0.939713 -0.341964 208.938 395.866)" stroke="#8643FF" stroke-width="2"/>
<line y1="-1" x2="14.5037" y2="-1" transform="matrix(-0.984813 -0.173618 0.173679 -0.984802 20.1273 390.428)" stroke="#8643FF" stroke-width="2"/>
<line y1="-1" x2="14.5035" y2="-1" transform="matrix(-0.939713 -0.341965 0.342075 -0.939673 52.272 391.788)" stroke="#8643FF" stroke-width="2"/>
<line y1="-1" x2="14.5031" y2="-1" transform="matrix(-0.866065 -0.499932 0.500068 -0.865986 51.4669 418.072)" stroke="#8643FF" stroke-width="2"/>
<line y1="-1" x2="14.5027" y2="-1" transform="matrix(-0.766103 -0.642718 0.642857 -0.765986 83.0156 419.431)" stroke="#8643FF" stroke-width="2"/>
<line y1="-1" x2="14.5022" y2="-1" transform="matrix(-0.642856 -0.765987 0.766102 -0.642719 114.31 420.338)" stroke="#8643FF" stroke-width="2"/>
<line y1="-1" x2="14.5018" y2="-1" transform="matrix(-0.500069 -0.865986 0.866065 -0.499931 145.39 420.79)" stroke="#8643FF" stroke-width="2"/>
<line y1="-1" x2="14.5014" y2="-1" transform="matrix(-0.342076 -0.939672 0.939713 -0.341964 176.302 421.244)" stroke="#8643FF" stroke-width="2"/>
<line y1="-1" x2="14.5012" y2="-1" transform="matrix(-0.173679 -0.984802 0.984813 -0.173617 207.105 421.697)" stroke="#8643FF" stroke-width="2"/>
<line y1="-1" x2="14.5035" y2="-1" transform="matrix(-0.939713 -0.341964 0.342077 -0.939672 19.6361 417.166)" stroke="#8643FF" stroke-width="2"/>
<line y1="-1" x2="14.5031" y2="-1" transform="matrix(-0.866065 -0.499931 0.500069 -0.865985 18.8356 443.449)" stroke="#8643FF" stroke-width="2"/>
<line y1="-1" x2="14.5027" y2="-1" transform="matrix(-0.766103 -0.642718 0.642857 -0.765986 50.3798 444.808)" stroke="#8643FF" stroke-width="2"/>
<line y1="-1" x2="14.5022" y2="-1" transform="matrix(-0.642857 -0.765986 0.766103 -0.642718 81.6738 445.714)" stroke="#8643FF" stroke-width="2"/>
<line y1="-1" x2="14.5018" y2="-1" transform="matrix(-0.500068 -0.865986 0.866065 -0.499932 112.754 446.167)" stroke="#8643FF" stroke-width="2"/>
<line y1="-1" x2="14.5014" y2="-1" transform="matrix(-0.342076 -0.939672 0.939713 -0.341964 143.671 446.621)" stroke="#8643FF" stroke-width="2"/>
<line y1="-1" x2="14.5012" y2="-1" transform="matrix(-0.173679 -0.984802 0.984813 -0.173617 174.473 447.074)" stroke="#8643FF" stroke-width="2"/>
<line x1="204.217" y1="447.074" x2="204.217" y2="432.572" stroke="#8643FF" stroke-width="2"/>
<line y1="-1" x2="14.5027" y2="-1" transform="matrix(-0.766103 -0.642718 0.642857 -0.765986 17.7485 470.185)" stroke="#8643FF" stroke-width="2"/>
<line y1="-1" x2="14.5022" y2="-1" transform="matrix(-0.642856 -0.765987 0.766102 -0.642719 49.0425 471.091)" stroke="#8643FF" stroke-width="2"/>
<line y1="-1" x2="14.5018" y2="-1" transform="matrix(-0.500069 -0.865985 0.866066 -0.499931 80.1227 471.545)" stroke="#8643FF" stroke-width="2"/>
<line y1="-1" x2="14.5014" y2="-1" transform="matrix(-0.342075 -0.939673 0.939713 -0.341965 111.035 471.997)" stroke="#8643FF" stroke-width="2"/>
<line y1="-1" x2="14.5012" y2="-1" transform="matrix(-0.173679 -0.984802 0.984813 -0.173617 141.838 472.451)" stroke="#8643FF" stroke-width="2"/>
<line x1="171.581" y1="472.451" x2="171.581" y2="457.95" stroke="#8643FF" stroke-width="2"/>
<line y1="-1" x2="14.5012" y2="-1" transform="matrix(0.173679 -0.984802 0.984813 0.173617 203.329 472.451)" stroke="#8643FF" stroke-width="2"/>
</g>
</svg>
