<svg width="208" height="32" viewBox="0 0 208 32" fill="none" xmlns="http://www.w3.org/2000/svg">
<g clip-path="url(#clip0_0_11732)">
<path d="M31.8578 16.1678C31.8578 24.7585 24.9411 31.723 16.4086 31.723C7.87619 31.723 0.959991 24.7606 0.959991 16.1678C0.959991 7.57506 7.87671 0.61322 16.4086 0.61322C24.9406 0.61322 31.8578 7.57716 31.8578 16.1678Z" fill="black"/>
<path d="M48.8058 16.1679C48.8058 24.255 45.3471 30.8102 41.0812 30.8102C36.8152 30.8102 33.3566 24.2529 33.3566 16.1679C33.3566 8.08289 36.8152 1.52551 41.0812 1.52551C45.3471 1.52551 48.8058 8.08289 48.8058 16.1679Z" fill="black"/>
<path d="M55.7377 16.1678C55.7377 23.4135 54.5212 29.2868 53.0208 29.2868C51.5205 29.2868 50.304 23.4114 50.304 16.1678C50.304 8.9243 51.5205 3.04889 53.0214 3.04889C54.5222 3.04889 55.7377 8.92273 55.7377 16.1678Z" fill="black"/>
<path d="M98.3748 1.96196L98.4178 1.95252V1.6194H89.632L81.4741 20.7932L73.3162 1.6194H63.8484V1.95252L63.8909 1.96196C65.4945 2.32393 66.3087 2.86373 66.3087 4.81049V27.6013C66.3087 29.5481 65.4914 30.0879 63.8877 30.4498L63.8452 30.4593V30.7934H70.2688V30.4603L70.2263 30.4509C68.6227 30.0889 67.8085 29.5491 67.8085 27.6024V6.13245L78.2883 30.7934H78.8826L89.6677 5.44472V28.1652C89.5302 29.7028 88.7234 30.1776 87.2713 30.5054L87.2283 30.5154V30.8459H98.4178V30.5154L98.3748 30.5054C96.9212 30.1776 96.0949 29.7028 95.9575 28.1652L95.9502 4.81049H95.9575C95.9575 2.86373 96.7717 2.32393 98.3748 1.96196ZM103.486 17.0597C103.669 12.9647 105.139 10.0092 107.607 9.95829C108.368 9.97088 109.007 10.2206 109.503 10.7011C110.557 11.7246 111.053 13.8633 110.977 17.0597H103.486ZM103.375 18.2138H116.49V18.1587C116.453 15.0274 115.546 12.5917 113.797 10.9193C112.285 9.47409 110.046 8.67881 107.695 8.67881H107.643C106.423 8.67881 104.926 8.97468 103.861 9.51081C102.649 10.0721 101.58 10.9115 100.69 12.0131C99.2577 13.7878 98.39 16.1862 98.1791 18.8816C98.1723 18.9624 98.1665 19.0431 98.1608 19.1239C98.155 19.2047 98.1513 19.2771 98.1477 19.3542C98.1403 19.4985 98.1345 19.6433 98.1314 19.7886C98.1262 20.0215 98.1246 20.256 98.1288 20.4921C98.2709 26.5967 101.569 31.4754 107.426 31.4754C112.567 31.4754 115.56 27.7172 116.307 22.6728L115.93 22.5401C114.618 25.2511 112.263 26.8942 109.582 26.6938C105.923 26.4199 103.119 22.7095 103.374 18.2148M131.318 26.4866C130.888 27.5069 129.99 28.0682 128.787 28.0682C127.585 28.0682 126.485 27.2425 125.704 25.7422C124.865 24.1317 124.423 21.8549 124.423 19.158C124.423 13.5449 126.169 9.91422 128.871 9.91422C130.002 9.91422 130.893 10.4755 131.318 11.4549V26.4866ZM140.018 30.4881C138.414 30.1088 137.6 29.5439 137.6 27.498V0.276978L127.857 3.14754V3.49901L127.917 3.49429C129.261 3.3857 130.172 3.5714 130.702 4.06032C131.116 4.44327 131.318 5.03081 131.318 5.85757V9.5895C130.357 8.97626 129.215 8.67776 127.828 8.67776C125.017 8.67776 122.447 9.86176 120.593 12.0121C118.661 14.2531 117.64 17.3157 117.64 20.8677C117.639 27.2115 120.762 31.4754 125.41 31.4754C128.129 31.4754 130.317 29.9856 131.318 27.4728V30.8459H140.06V30.4965L140.018 30.4881ZM148.374 3.97901C148.374 1.99816 146.881 0.504125 144.899 0.504125C142.927 0.504125 141.384 2.03068 141.384 3.97901C141.384 5.92734 142.929 7.4539 144.899 7.4539C146.881 7.4539 148.374 5.95986 148.374 3.97901ZM150.674 30.4881C149.07 30.1088 148.256 29.5439 148.256 27.498H148.249V8.74229L139.506 11.2525V11.5934L139.559 11.5982C141.45 11.7666 141.968 12.4181 141.968 14.6287V30.8459H150.718V30.4965L150.674 30.4881ZM173.076 30.4881C171.473 30.1088 170.659 29.5439 170.659 27.498V8.74229L162.334 11.1696V11.5116L162.384 11.5168C163.93 11.6795 164.377 12.3683 164.377 14.5888V26.4446C163.861 27.4649 162.894 28.0708 161.722 28.1117C159.822 28.1117 158.775 26.8281 158.775 24.4973V8.74281L150.032 11.253V11.5934L150.085 11.5982C151.976 11.766 152.495 12.4176 152.495 14.6287V24.6626C152.49 25.363 152.551 26.0623 152.677 26.7515L152.834 27.4361C153.574 30.0884 155.514 31.4754 158.552 31.4754C161.126 31.4754 163.381 29.8822 164.375 27.3894V30.8517H173.118V30.5023L173.076 30.4881ZM207.04 30.8459V30.496L206.997 30.486C205.257 30.0847 204.58 29.3283 204.58 27.7881V15.03C204.58 11.0521 202.345 8.67776 198.603 8.67776C195.875 8.67776 193.575 10.2542 192.689 12.7098C191.986 10.1078 189.961 8.67776 186.968 8.67776C184.339 8.67776 182.278 10.0653 181.394 12.4092V8.74386L172.652 11.1512V11.4943L172.704 11.499C174.573 11.6648 175.113 12.3352 175.113 14.4892V30.8459H183.271V30.4965L183.228 30.486C181.84 30.1597 181.392 29.5648 181.392 28.0383V13.4148C181.759 12.5571 182.499 11.541 183.962 11.541C185.779 11.541 186.701 12.8 186.701 15.2803V30.8459H194.86V30.4965L194.817 30.486C193.429 30.1597 192.981 29.5648 192.981 28.0383V15.0285C192.985 14.542 192.946 14.0562 192.866 13.5764C193.255 12.6442 194.037 11.541 195.56 11.541C197.403 11.541 198.299 12.7638 198.299 15.2803V30.8459H207.04Z" fill="black"/>
</g>
<defs>
<clipPath id="clip0_0_11732">
<rect width="206.689" height="32" fill="white" transform="translate(0.655731)"/>
</clipPath>
</defs>
</svg>
