<svg width="1440" height="672" viewBox="0 0 1440 672" fill="none" xmlns="http://www.w3.org/2000/svg">
<g opacity="0.2">
<line y1="-1" x2="8.42793" y2="-1" transform="matrix(-0.939468 -0.342636 0.341405 -0.939916 664.839 482.596)" stroke="#8643FF" stroke-width="2"/>
<line y1="-1" x2="8.43022" y2="-1" transform="matrix(-0.865583 -0.500765 0.499235 -0.866466 664.576 464.599)" stroke="#8643FF" stroke-width="2"/>
<line y1="-1" x2="8.43303" y2="-1" transform="matrix(-0.765398 -0.643557 0.642017 -0.76669 664.312 446.506)" stroke="#8643FF" stroke-width="2"/>
<line y1="-1" x2="8.43601" y2="-1" transform="matrix(-0.642018 -0.76669 0.765398 -0.643557 663.786 428.291)" stroke="#8643FF" stroke-width="2"/>
<line y1="-1" x2="8.43602" y2="-1" transform="matrix(-0.642018 0.76669 -0.765398 -0.643557 663.786 608.56)" stroke="#8643FF" stroke-width="2"/>
<line y1="-1" x2="8.43303" y2="-1" transform="matrix(-0.765398 0.643557 -0.642018 -0.76669 664.312 590.343)" stroke="#8643FF" stroke-width="2"/>
<line y1="-1" x2="8.43022" y2="-1" transform="matrix(-0.865583 0.500765 -0.499235 -0.866467 664.576 572.25)" stroke="#8643FF" stroke-width="2"/>
<line y1="-1" x2="8.42793" y2="-1" transform="matrix(-0.939468 0.342637 -0.341404 -0.939917 664.839 554.253)" stroke="#8643FF" stroke-width="2"/>
<line y1="-1" x2="8.42643" y2="-1" transform="matrix(-0.984747 0.173992 -0.173305 -0.984868 665.103 536.322)" stroke="#8643FF" stroke-width="2"/>
<line x1="665.103" y1="519.425" x2="656.677" y2="519.425" stroke="#8643FF" stroke-width="2"/>
<line y1="-1" x2="8.42643" y2="-1" transform="matrix(-0.984747 -0.173992 0.173305 -0.984868 665.103 500.528)" stroke="#8643FF" stroke-width="2"/>
<line y1="-1" x2="8.42793" y2="-1" transform="matrix(-0.939468 -0.342637 0.341404 -0.939917 679.585 501.592)" stroke="#8643FF" stroke-width="2"/>
<line y1="-1" x2="8.43022" y2="-1" transform="matrix(-0.865583 -0.500765 0.499235 -0.866466 679.321 483.597)" stroke="#8643FF" stroke-width="2"/>
<line y1="-1" x2="8.43303" y2="-1" transform="matrix(-0.765398 -0.643557 0.642017 -0.76669 679.058 465.504)" stroke="#8643FF" stroke-width="2"/>
<line y1="-1" x2="8.43601" y2="-1" transform="matrix(-0.642018 -0.76669 0.765398 -0.643557 678.532 447.287)" stroke="#8643FF" stroke-width="2"/>
<line y1="-1" x2="8.43882" y2="-1" transform="matrix(-0.499236 -0.866466 0.865583 -0.500765 677.741 428.924)" stroke="#8643FF" stroke-width="2"/>
<line y1="-1" x2="8.43303" y2="-1" transform="matrix(-0.765398 0.643557 -0.642018 -0.76669 679.058 609.339)" stroke="#8643FF" stroke-width="2"/>
<line y1="-1" x2="8.43022" y2="-1" transform="matrix(-0.865583 0.500765 -0.499235 -0.866467 679.321 591.246)" stroke="#8643FF" stroke-width="2"/>
<line y1="-1" x2="8.42793" y2="-1" transform="matrix(-0.939468 0.342637 -0.341404 -0.939917 679.585 573.251)" stroke="#8643FF" stroke-width="2"/>
<line y1="-1" x2="8.42643" y2="-1" transform="matrix(-0.984747 0.173992 -0.173305 -0.984868 679.848 555.32)" stroke="#8643FF" stroke-width="2"/>
<line x1="679.848" y1="538.423" x2="671.422" y2="538.423" stroke="#8643FF" stroke-width="2"/>
<line y1="-1" x2="8.42643" y2="-1" transform="matrix(-0.984747 -0.173992 0.173305 -0.984868 679.848 519.523)" stroke="#8643FF" stroke-width="2"/>
<line y1="-1" x2="8.42792" y2="-1" transform="matrix(-0.939468 -0.342636 0.341405 -0.939916 694.33 520.591)" stroke="#8643FF" stroke-width="2"/>
<line y1="-1" x2="8.43022" y2="-1" transform="matrix(-0.865583 -0.500765 0.499235 -0.866466 694.067 502.593)" stroke="#8643FF" stroke-width="2"/>
<line y1="-1" x2="8.43302" y2="-1" transform="matrix(-0.765399 -0.643556 0.642018 -0.766689 693.803 484.5)" stroke="#8643FF" stroke-width="2"/>
<line y1="-1" x2="8.43603" y2="-1" transform="matrix(-0.642017 -0.76669 0.765398 -0.643558 693.277 466.283)" stroke="#8643FF" stroke-width="2"/>
<line y1="-1" x2="8.43883" y2="-1" transform="matrix(-0.499235 -0.866467 0.865583 -0.500766 692.487 447.92)" stroke="#8643FF" stroke-width="2"/>
<line y1="-1" x2="8.4411" y2="-1" transform="matrix(-0.341405 -0.939916 0.939468 -0.342636 691.96 429.39)" stroke="#8643FF" stroke-width="2"/>
<line y1="-1" x2="8.43022" y2="-1" transform="matrix(-0.865583 0.500765 -0.499235 -0.866467 694.067 610.244)" stroke="#8643FF" stroke-width="2"/>
<line y1="-1" x2="8.42793" y2="-1" transform="matrix(-0.939468 0.342637 -0.341404 -0.939917 694.33 592.247)" stroke="#8643FF" stroke-width="2"/>
<line y1="-1" x2="8.42643" y2="-1" transform="matrix(-0.984747 0.173992 -0.173305 -0.984868 694.593 574.316)" stroke="#8643FF" stroke-width="2"/>
<line x1="694.593" y1="557.419" x2="686.167" y2="557.419" stroke="#8643FF" stroke-width="2"/>
<line y1="-1" x2="8.42643" y2="-1" transform="matrix(-0.984747 -0.173992 0.173305 -0.984868 694.593 538.522)" stroke="#8643FF" stroke-width="2"/>
<line y1="-1" x2="8.42793" y2="-1" transform="matrix(-0.939468 -0.342637 0.341404 -0.939917 709.075 539.586)" stroke="#8643FF" stroke-width="2"/>
<line y1="-1" x2="8.43022" y2="-1" transform="matrix(-0.865583 -0.500765 0.499235 -0.866466 708.812 521.591)" stroke="#8643FF" stroke-width="2"/>
<line y1="-1" x2="8.43303" y2="-1" transform="matrix(-0.765398 -0.643558 0.642017 -0.76669 708.549 503.499)" stroke="#8643FF" stroke-width="2"/>
<line y1="-1" x2="8.43603" y2="-1" transform="matrix(-0.642017 -0.76669 0.765398 -0.643558 708.022 485.281)" stroke="#8643FF" stroke-width="2"/>
<line y1="-1" x2="8.43882" y2="-1" transform="matrix(-0.499236 -0.866466 0.865583 -0.500765 707.232 466.916)" stroke="#8643FF" stroke-width="2"/>
<line y1="-1" x2="8.44112" y2="-1" transform="matrix(-0.341404 -0.939917 0.939468 -0.342637 706.706 448.386)" stroke="#8643FF" stroke-width="2"/>
<line y1="-1" x2="8.4426" y2="-1" transform="matrix(-0.173305 -0.984868 0.984747 -0.173992 705.916 429.674)" stroke="#8643FF" stroke-width="2"/>
<line y1="-1" x2="8.42793" y2="-1" transform="matrix(-0.939468 0.342637 -0.341404 -0.939917 709.075 611.245)" stroke="#8643FF" stroke-width="2"/>
<line y1="-1" x2="8.42643" y2="-1" transform="matrix(-0.984747 0.173992 -0.173305 -0.984868 709.339 593.314)" stroke="#8643FF" stroke-width="2"/>
<line x1="709.339" y1="576.417" x2="700.913" y2="576.417" stroke="#8643FF" stroke-width="2"/>
<line y1="-1" x2="8.42643" y2="-1" transform="matrix(-0.984747 -0.173992 0.173305 -0.984868 709.339 557.518)" stroke="#8643FF" stroke-width="2"/>
<line y1="-1" x2="8.42793" y2="-1" transform="matrix(-0.939468 -0.342637 0.341404 -0.939917 723.821 558.585)" stroke="#8643FF" stroke-width="2"/>
<line y1="-1" x2="8.43021" y2="-1" transform="matrix(-0.865583 -0.500765 0.499235 -0.866467 723.557 540.587)" stroke="#8643FF" stroke-width="2"/>
<line y1="-1" x2="8.43302" y2="-1" transform="matrix(-0.765398 -0.643557 0.642018 -0.76669 723.294 522.494)" stroke="#8643FF" stroke-width="2"/>
<line y1="-1" x2="8.43601" y2="-1" transform="matrix(-0.642018 -0.76669 0.765398 -0.643557 722.767 504.277)" stroke="#8643FF" stroke-width="2"/>
<line y1="-1" x2="8.43882" y2="-1" transform="matrix(-0.499236 -0.866466 0.865583 -0.500765 721.978 485.914)" stroke="#8643FF" stroke-width="2"/>
<line y1="-1" x2="8.44111" y2="-1" transform="matrix(-0.341404 -0.939917 0.939468 -0.342637 721.45 467.384)" stroke="#8643FF" stroke-width="2"/>
<line y1="-1" x2="8.4426" y2="-1" transform="matrix(-0.173305 -0.984868 0.984747 -0.173992 720.661 448.672)" stroke="#8643FF" stroke-width="2"/>
<line y1="-1" x2="8.42643" y2="-1" transform="matrix(-0.984747 0.173992 -0.173305 -0.984868 724.084 612.31)" stroke="#8643FF" stroke-width="2"/>
<line x1="724.084" y1="595.413" x2="715.658" y2="595.413" stroke="#8643FF" stroke-width="2"/>
<line y1="-1" x2="8.42643" y2="-1" transform="matrix(-0.984747 -0.173992 0.173305 -0.984868 724.084 576.516)" stroke="#8643FF" stroke-width="2"/>
<line x1="720.871" y1="419.217" x2="720.871" y2="427.66" stroke="#8643FF" stroke-width="2"/>
<line y1="-1" x2="8.42792" y2="-1" transform="matrix(-0.939468 -0.342637 0.341404 -0.939917 738.566 577.58)" stroke="#8643FF" stroke-width="2"/>
<line y1="-1" x2="8.43021" y2="-1" transform="matrix(-0.865583 -0.500766 0.499235 -0.866467 738.303 559.585)" stroke="#8643FF" stroke-width="2"/>
<line y1="-1" x2="8.43303" y2="-1" transform="matrix(-0.765399 -0.643557 0.642018 -0.766689 738.039 541.493)" stroke="#8643FF" stroke-width="2"/>
<line y1="-1" x2="8.43602" y2="-1" transform="matrix(-0.642018 -0.76669 0.765398 -0.643557 737.513 523.275)" stroke="#8643FF" stroke-width="2"/>
<line y1="-1" x2="8.43882" y2="-1" transform="matrix(-0.499235 -0.866467 0.865583 -0.500766 736.723 504.91)" stroke="#8643FF" stroke-width="2"/>
<line y1="-1" x2="8.44111" y2="-1" transform="matrix(-0.341404 -0.939917 0.939468 -0.342637 736.196 486.38)" stroke="#8643FF" stroke-width="2"/>
<line y1="-1" x2="8.4426" y2="-1" transform="matrix(-0.173305 -0.984868 0.984747 -0.173992 735.406 467.668)" stroke="#8643FF" stroke-width="2"/>
<line x1="738.829" y1="614.411" x2="730.403" y2="614.411" stroke="#8643FF" stroke-width="2"/>
<line y1="-1" x2="8.42643" y2="-1" transform="matrix(-0.984747 -0.173992 0.173305 -0.984868 738.829 595.512)" stroke="#8643FF" stroke-width="2"/>
<line x1="735.616" y1="438.216" x2="735.616" y2="446.659" stroke="#8643FF" stroke-width="2"/>
<line y1="-1" x2="8.4426" y2="-1" transform="matrix(-0.173305 0.984868 -0.984747 -0.173992 735.406 419.312)" stroke="#8643FF" stroke-width="2"/>
<line y1="-1" x2="8.42792" y2="-1" transform="matrix(-0.939468 -0.342637 0.341404 -0.939917 753.311 596.579)" stroke="#8643FF" stroke-width="2"/>
<line y1="-1" x2="8.43022" y2="-1" transform="matrix(-0.865583 -0.500765 0.499235 -0.866467 753.048 578.581)" stroke="#8643FF" stroke-width="2"/>
<line y1="-1" x2="8.43303" y2="-1" transform="matrix(-0.765399 -0.643557 0.642018 -0.766689 752.785 560.489)" stroke="#8643FF" stroke-width="2"/>
<line y1="-1" x2="8.43602" y2="-1" transform="matrix(-0.642018 -0.76669 0.765398 -0.643557 752.258 542.271)" stroke="#8643FF" stroke-width="2"/>
<line y1="-1" x2="8.43882" y2="-1" transform="matrix(-0.499235 -0.866467 0.865583 -0.500766 751.468 523.908)" stroke="#8643FF" stroke-width="2"/>
<line y1="-1" x2="8.44111" y2="-1" transform="matrix(-0.341404 -0.939917 0.939468 -0.342637 750.942 505.378)" stroke="#8643FF" stroke-width="2"/>
<line y1="-1" x2="8.4426" y2="-1" transform="matrix(-0.173305 -0.984868 0.984747 -0.173992 750.152 486.666)" stroke="#8643FF" stroke-width="2"/>
<line y1="-1" x2="8.42643" y2="-1" transform="matrix(-0.984747 -0.173992 0.173305 -0.984868 753.575 614.51)" stroke="#8643FF" stroke-width="2"/>
<line x1="750.362" y1="457.211" x2="750.362" y2="465.654" stroke="#8643FF" stroke-width="2"/>
<line y1="-1" x2="8.4426" y2="-1" transform="matrix(-0.173305 0.984868 -0.984747 -0.173992 750.152 438.311)" stroke="#8643FF" stroke-width="2"/>
<line y1="-1" x2="8.4411" y2="-1" transform="matrix(-0.341404 0.939917 -0.939468 -0.342637 750.942 419.598)" stroke="#8643FF" stroke-width="2"/>
<line y1="-1" x2="8.42792" y2="-1" transform="matrix(-0.939468 -0.342637 0.341404 -0.939917 768.057 615.574)" stroke="#8643FF" stroke-width="2"/>
<line y1="-1" x2="8.43022" y2="-1" transform="matrix(-0.865583 -0.500765 0.499235 -0.866467 767.793 597.58)" stroke="#8643FF" stroke-width="2"/>
<line y1="-1" x2="8.43303" y2="-1" transform="matrix(-0.765398 -0.643557 0.642017 -0.76669 767.53 579.487)" stroke="#8643FF" stroke-width="2"/>
<line y1="-1" x2="8.43601" y2="-1" transform="matrix(-0.642018 -0.76669 0.765398 -0.643557 767.003 561.27)" stroke="#8643FF" stroke-width="2"/>
<line y1="-1" x2="8.43882" y2="-1" transform="matrix(-0.499235 -0.866466 0.865583 -0.500765 766.213 542.904)" stroke="#8643FF" stroke-width="2"/>
<line y1="-1" x2="8.44112" y2="-1" transform="matrix(-0.341405 -0.939916 0.939468 -0.342637 765.687 524.374)" stroke="#8643FF" stroke-width="2"/>
<line y1="-1" x2="8.4426" y2="-1" transform="matrix(-0.173305 -0.984868 0.984747 -0.173992 764.897 505.662)" stroke="#8643FF" stroke-width="2"/>
<line y1="-1" x2="8.43883" y2="-1" transform="matrix(-0.499235 0.866467 -0.865583 -0.500765 766.213 420.064)" stroke="#8643FF" stroke-width="2"/>
<line x1="765.107" y1="476.207" x2="765.107" y2="484.65" stroke="#8643FF" stroke-width="2"/>
<line y1="-1" x2="8.4426" y2="-1" transform="matrix(-0.173305 0.984868 -0.984747 -0.173992 764.897 457.307)" stroke="#8643FF" stroke-width="2"/>
<line y1="-1" x2="8.44112" y2="-1" transform="matrix(-0.341405 0.939916 -0.939468 -0.342636 765.687 438.597)" stroke="#8643FF" stroke-width="2"/>
<line y1="-1" x2="8.43022" y2="-1" transform="matrix(-0.865583 -0.500765 0.499235 -0.866467 782.539 616.575)" stroke="#8643FF" stroke-width="2"/>
<line y1="-1" x2="8.43302" y2="-1" transform="matrix(-0.765398 -0.643557 0.642018 -0.76669 782.275 598.483)" stroke="#8643FF" stroke-width="2"/>
<line y1="-1" x2="8.43601" y2="-1" transform="matrix(-0.642018 -0.76669 0.765398 -0.643557 781.749 580.265)" stroke="#8643FF" stroke-width="2"/>
<line y1="-1" x2="8.43883" y2="-1" transform="matrix(-0.499235 -0.866467 0.865583 -0.500765 780.959 561.902)" stroke="#8643FF" stroke-width="2"/>
<line y1="-1" x2="8.44111" y2="-1" transform="matrix(-0.341405 -0.939916 0.939468 -0.342636 780.432 543.373)" stroke="#8643FF" stroke-width="2"/>
<line y1="-1" x2="8.4426" y2="-1" transform="matrix(-0.173305 -0.984868 0.984747 -0.173992 779.642 524.66)" stroke="#8643FF" stroke-width="2"/>
<line y1="-1" x2="8.43883" y2="-1" transform="matrix(-0.499235 0.866467 -0.865583 -0.500765 780.959 439.063)" stroke="#8643FF" stroke-width="2"/>
<line y1="-1" x2="8.43601" y2="-1" transform="matrix(-0.642018 0.76669 -0.765398 -0.643557 781.749 420.697)" stroke="#8643FF" stroke-width="2"/>
<line x1="779.852" y1="495.205" x2="779.852" y2="503.648" stroke="#8643FF" stroke-width="2"/>
<line y1="-1" x2="8.4426" y2="-1" transform="matrix(-0.173305 0.984868 -0.984747 -0.173992 779.642 476.305)" stroke="#8643FF" stroke-width="2"/>
<line y1="-1" x2="8.44112" y2="-1" transform="matrix(-0.341405 0.939916 -0.939468 -0.342636 780.432 457.593)" stroke="#8643FF" stroke-width="2"/>
<line y1="-1" x2="8.43302" y2="-1" transform="matrix(-0.765398 -0.643557 0.642018 -0.76669 797.021 617.481)" stroke="#8643FF" stroke-width="2"/>
<line y1="-1" x2="8.43601" y2="-1" transform="matrix(-0.642017 -0.76669 0.765398 -0.643558 796.494 599.264)" stroke="#8643FF" stroke-width="2"/>
<line y1="-1" x2="8.43882" y2="-1" transform="matrix(-0.499235 -0.866467 0.865583 -0.500766 795.704 580.898)" stroke="#8643FF" stroke-width="2"/>
<line y1="-1" x2="8.4411" y2="-1" transform="matrix(-0.341403 -0.939917 0.939468 -0.342638 795.178 562.368)" stroke="#8643FF" stroke-width="2"/>
<line y1="-1" x2="8.4426" y2="-1" transform="matrix(-0.173306 -0.984868 0.984747 -0.173991 794.388 543.656)" stroke="#8643FF" stroke-width="2"/>
<line y1="-1" x2="8.43881" y2="-1" transform="matrix(-0.499235 0.866467 -0.865583 -0.500765 795.704 458.059)" stroke="#8643FF" stroke-width="2"/>
<line y1="-1" x2="8.43601" y2="-1" transform="matrix(-0.642017 0.76669 -0.765398 -0.643558 796.494 439.696)" stroke="#8643FF" stroke-width="2"/>
<line y1="-1" x2="8.43303" y2="-1" transform="matrix(-0.765398 0.643558 -0.642017 -0.76669 797.021 421.479)" stroke="#8643FF" stroke-width="2"/>
<line x1="794.598" y1="514.201" x2="794.598" y2="522.644" stroke="#8643FF" stroke-width="2"/>
<line y1="-1" x2="8.4426" y2="-1" transform="matrix(-0.173306 0.984868 -0.984747 -0.173991 794.388 495.301)" stroke="#8643FF" stroke-width="2"/>
<line y1="-1" x2="8.44111" y2="-1" transform="matrix(-0.341403 0.939917 -0.939467 -0.342638 795.178 476.588)" stroke="#8643FF" stroke-width="2"/>
<line y1="-1" x2="8.43601" y2="-1" transform="matrix(-0.642017 -0.76669 0.765398 -0.643558 811.24 618.26)" stroke="#8643FF" stroke-width="2"/>
<line y1="-1" x2="8.43883" y2="-1" transform="matrix(-0.499236 -0.866466 0.865584 -0.500764 810.449 599.896)" stroke="#8643FF" stroke-width="2"/>
<line y1="-1" x2="8.44111" y2="-1" transform="matrix(-0.341405 -0.939916 0.939468 -0.342636 809.923 581.367)" stroke="#8643FF" stroke-width="2"/>
<line y1="-1" x2="8.4426" y2="-1" transform="matrix(-0.173304 -0.984868 0.984747 -0.173993 809.133 562.654)" stroke="#8643FF" stroke-width="2"/>
<line y1="-1" x2="8.43882" y2="-1" transform="matrix(-0.499236 0.866466 -0.865584 -0.500764 810.449 477.057)" stroke="#8643FF" stroke-width="2"/>
<line y1="-1" x2="8.43601" y2="-1" transform="matrix(-0.642017 0.76669 -0.765398 -0.643558 811.24 458.691)" stroke="#8643FF" stroke-width="2"/>
<line y1="-1" x2="8.43303" y2="-1" transform="matrix(-0.765398 0.643558 -0.642017 -0.76669 811.766 440.477)" stroke="#8643FF" stroke-width="2"/>
<line y1="-1" x2="8.43022" y2="-1" transform="matrix(-0.865583 0.500765 -0.499236 -0.866466 812.03 422.381)" stroke="#8643FF" stroke-width="2"/>
<line x1="809.343" y1="533.2" x2="809.343" y2="541.643" stroke="#8643FF" stroke-width="2"/>
<line y1="-1" x2="8.4426" y2="-1" transform="matrix(-0.173304 0.984868 -0.984747 -0.173993 809.133 514.299)" stroke="#8643FF" stroke-width="2"/>
<line y1="-1" x2="8.44112" y2="-1" transform="matrix(-0.341405 0.939916 -0.939468 -0.342636 809.923 495.587)" stroke="#8643FF" stroke-width="2"/>
<line y1="-1" x2="8.43883" y2="-1" transform="matrix(-0.499236 -0.866466 0.865584 -0.500764 825.195 618.892)" stroke="#8643FF" stroke-width="2"/>
<line y1="-1" x2="8.44111" y2="-1" transform="matrix(-0.341405 -0.939916 0.939468 -0.342636 824.668 600.363)" stroke="#8643FF" stroke-width="2"/>
<line y1="-1" x2="8.4426" y2="-1" transform="matrix(-0.173304 -0.984868 0.984747 -0.173993 823.878 581.65)" stroke="#8643FF" stroke-width="2"/>
<line y1="-1" x2="8.43883" y2="-1" transform="matrix(-0.499236 0.866466 -0.865584 -0.500764 825.195 496.053)" stroke="#8643FF" stroke-width="2"/>
<line y1="-1" x2="8.43601" y2="-1" transform="matrix(-0.642017 0.76669 -0.765398 -0.643558 825.985 477.69)" stroke="#8643FF" stroke-width="2"/>
<line y1="-1" x2="8.43303" y2="-1" transform="matrix(-0.765398 0.643558 -0.642017 -0.76669 826.511 459.473)" stroke="#8643FF" stroke-width="2"/>
<line y1="-1" x2="8.43022" y2="-1" transform="matrix(-0.865583 0.500765 -0.499236 -0.866466 826.774 441.38)" stroke="#8643FF" stroke-width="2"/>
<line y1="-1" x2="8.42793" y2="-1" transform="matrix(-0.939468 0.342638 -0.341404 -0.939917 827.038 423.382)" stroke="#8643FF" stroke-width="2"/>
<line x1="824.088" y1="552.195" x2="824.088" y2="560.638" stroke="#8643FF" stroke-width="2"/>
<line y1="-1" x2="8.4426" y2="-1" transform="matrix(-0.173304 0.984868 -0.984747 -0.173993 823.878 533.295)" stroke="#8643FF" stroke-width="2"/>
<line y1="-1" x2="8.44112" y2="-1" transform="matrix(-0.341405 0.939916 -0.939468 -0.342636 824.668 514.583)" stroke="#8643FF" stroke-width="2"/>
<line y1="-1" x2="8.44111" y2="-1" transform="matrix(-0.341405 -0.939916 0.939468 -0.342636 839.413 619.361)" stroke="#8643FF" stroke-width="2"/>
<line y1="-1" x2="8.4426" y2="-1" transform="matrix(-0.173304 -0.984868 0.984747 -0.173993 838.624 600.648)" stroke="#8643FF" stroke-width="2"/>
<line y1="-1" x2="8.43883" y2="-1" transform="matrix(-0.499236 0.866466 -0.865584 -0.500764 839.94 515.051)" stroke="#8643FF" stroke-width="2"/>
<line y1="-1" x2="8.43602" y2="-1" transform="matrix(-0.642018 0.76669 -0.765398 -0.643557 840.73 496.686)" stroke="#8643FF" stroke-width="2"/>
<line y1="-1" x2="8.43303" y2="-1" transform="matrix(-0.765398 0.643558 -0.642017 -0.76669 841.257 478.468)" stroke="#8643FF" stroke-width="2"/>
<line y1="-1" x2="8.43022" y2="-1" transform="matrix(-0.865583 0.500765 -0.499236 -0.866466 841.52 460.375)" stroke="#8643FF" stroke-width="2"/>
<line y1="-1" x2="8.42793" y2="-1" transform="matrix(-0.939468 0.342636 -0.341405 -0.939916 841.784 442.381)" stroke="#8643FF" stroke-width="2"/>
<line y1="-1" x2="8.42643" y2="-1" transform="matrix(-0.984747 0.173993 -0.173304 -0.984868 842.047 424.449)" stroke="#8643FF" stroke-width="2"/>
<line x1="838.834" y1="571.194" x2="838.834" y2="579.637" stroke="#8643FF" stroke-width="2"/>
<line y1="-1" x2="8.4426" y2="-1" transform="matrix(-0.173304 0.984868 -0.984747 -0.173993 838.624 552.293)" stroke="#8643FF" stroke-width="2"/>
<line y1="-1" x2="8.44111" y2="-1" transform="matrix(-0.341405 0.939916 -0.939468 -0.342636 839.413 533.581)" stroke="#8643FF" stroke-width="2"/>
<line y1="-1" x2="8.44261" y2="-1" transform="matrix(-0.173306 -0.984868 0.984747 -0.173992 853.369 619.644)" stroke="#8643FF" stroke-width="2"/>
<line y1="-1" x2="8.43882" y2="-1" transform="matrix(-0.499235 0.866467 -0.865583 -0.500766 854.686 534.047)" stroke="#8643FF" stroke-width="2"/>
<line y1="-1" x2="8.43602" y2="-1" transform="matrix(-0.642018 0.766689 -0.765399 -0.643556 855.476 515.684)" stroke="#8643FF" stroke-width="2"/>
<line y1="-1" x2="8.43303" y2="-1" transform="matrix(-0.765398 0.643558 -0.642017 -0.76669 856.002 497.467)" stroke="#8643FF" stroke-width="2"/>
<line y1="-1" x2="8.43022" y2="-1" transform="matrix(-0.865583 0.500765 -0.499236 -0.866466 856.266 479.374)" stroke="#8643FF" stroke-width="2"/>
<line y1="-1" x2="8.42793" y2="-1" transform="matrix(-0.939468 0.342638 -0.341404 -0.939917 856.529 461.376)" stroke="#8643FF" stroke-width="2"/>
<line y1="-1" x2="8.42642" y2="-1" transform="matrix(-0.984747 0.173991 -0.173306 -0.984868 856.792 443.445)" stroke="#8643FF" stroke-width="2"/>
<line x1="856.792" y1="426.548" x2="848.366" y2="426.548" stroke="#8643FF" stroke-width="2"/>
<line x1="853.579" y1="590.189" x2="853.579" y2="598.633" stroke="#8643FF" stroke-width="2"/>
<line y1="-1" x2="8.44261" y2="-1" transform="matrix(-0.173305 0.984868 -0.984747 -0.173991 853.369 571.289)" stroke="#8643FF" stroke-width="2"/>
<line y1="-1" x2="8.44111" y2="-1" transform="matrix(-0.341405 0.939916 -0.939468 -0.342636 854.159 552.577)" stroke="#8643FF" stroke-width="2"/>
<line y1="-1" x2="8.43882" y2="-1" transform="matrix(-0.499234 0.866467 -0.865583 -0.500766 869.431 553.045)" stroke="#8643FF" stroke-width="2"/>
<line y1="-1" x2="8.43602" y2="-1" transform="matrix(-0.642018 0.766689 -0.765399 -0.643556 870.22 534.68)" stroke="#8643FF" stroke-width="2"/>
<line y1="-1" x2="8.43303" y2="-1" transform="matrix(-0.765398 0.643558 -0.642017 -0.76669 870.748 516.462)" stroke="#8643FF" stroke-width="2"/>
<line y1="-1" x2="8.43021" y2="-1" transform="matrix(-0.865583 0.500766 -0.499235 -0.866467 871.01 498.37)" stroke="#8643FF" stroke-width="2"/>
<line y1="-1" x2="8.42793" y2="-1" transform="matrix(-0.939468 0.342638 -0.341404 -0.939917 871.274 480.375)" stroke="#8643FF" stroke-width="2"/>
<line y1="-1" x2="8.42644" y2="-1" transform="matrix(-0.984747 0.173991 -0.173306 -0.984868 871.537 462.443)" stroke="#8643FF" stroke-width="2"/>
<line x1="871.537" y1="445.547" x2="863.111" y2="445.547" stroke="#8643FF" stroke-width="2"/>
<line y1="-1" x2="8.42644" y2="-1" transform="matrix(-0.984747 -0.173991 0.173306 -0.984868 871.537 426.647)" stroke="#8643FF" stroke-width="2"/>
<line x1="868.324" y1="609.188" x2="868.324" y2="617.631" stroke="#8643FF" stroke-width="2"/>
<line y1="-1" x2="8.4426" y2="-1" transform="matrix(-0.173305 0.984868 -0.984747 -0.173991 868.115 590.287)" stroke="#8643FF" stroke-width="2"/>
<line y1="-1" x2="8.44111" y2="-1" transform="matrix(-0.341405 0.939916 -0.939468 -0.342636 868.905 571.575)" stroke="#8643FF" stroke-width="2"/>
<line y1="-1" x2="8.42793" y2="-1" transform="matrix(-0.939468 -0.342637 0.341404 -0.939917 886.019 427.714)" stroke="#8643FF" stroke-width="2"/>
<line y1="-1" x2="8.43882" y2="-1" transform="matrix(-0.499235 0.866467 -0.865583 -0.500766 884.176 572.041)" stroke="#8643FF" stroke-width="2"/>
<line y1="-1" x2="8.43602" y2="-1" transform="matrix(-0.642018 0.76669 -0.765398 -0.643557 884.966 553.678)" stroke="#8643FF" stroke-width="2"/>
<line y1="-1" x2="8.43302" y2="-1" transform="matrix(-0.765398 0.643557 -0.642018 -0.76669 885.493 535.461)" stroke="#8643FF" stroke-width="2"/>
<line y1="-1" x2="8.43021" y2="-1" transform="matrix(-0.865583 0.500766 -0.499235 -0.866467 885.756 517.368)" stroke="#8643FF" stroke-width="2"/>
<line y1="-1" x2="8.42793" y2="-1" transform="matrix(-0.939468 0.342637 -0.341404 -0.939916 886.019 499.371)" stroke="#8643FF" stroke-width="2"/>
<line y1="-1" x2="8.42644" y2="-1" transform="matrix(-0.984747 0.173993 -0.173304 -0.984868 886.283 481.439)" stroke="#8643FF" stroke-width="2"/>
<line x1="886.283" y1="464.542" x2="877.857" y2="464.542" stroke="#8643FF" stroke-width="2"/>
<line y1="-1" x2="8.42644" y2="-1" transform="matrix(-0.984747 -0.173991 0.173306 -0.984868 886.283 445.646)" stroke="#8643FF" stroke-width="2"/>
<line y1="-1" x2="8.4426" y2="-1" transform="matrix(-0.173305 0.984868 -0.984747 -0.173991 882.859 609.283)" stroke="#8643FF" stroke-width="2"/>
<line y1="-1" x2="8.44111" y2="-1" transform="matrix(-0.341405 0.939916 -0.939468 -0.342636 883.649 590.571)" stroke="#8643FF" stroke-width="2"/>
<line y1="-1" x2="8.42793" y2="-1" transform="matrix(-0.939468 -0.342636 0.341405 -0.939916 900.765 446.71)" stroke="#8643FF" stroke-width="2"/>
<line y1="-1" x2="8.43022" y2="-1" transform="matrix(-0.865583 -0.500765 0.499236 -0.866466 900.501 428.715)" stroke="#8643FF" stroke-width="2"/>
<line y1="-1" x2="8.43882" y2="-1" transform="matrix(-0.499235 0.866467 -0.865583 -0.500766 898.922 591.04)" stroke="#8643FF" stroke-width="2"/>
<line y1="-1" x2="8.43602" y2="-1" transform="matrix(-0.642018 0.76669 -0.765398 -0.643557 899.712 572.674)" stroke="#8643FF" stroke-width="2"/>
<line y1="-1" x2="8.43302" y2="-1" transform="matrix(-0.765398 0.643557 -0.642018 -0.76669 900.238 554.457)" stroke="#8643FF" stroke-width="2"/>
<line y1="-1" x2="8.43022" y2="-1" transform="matrix(-0.865583 0.500766 -0.499235 -0.866467 900.501 536.364)" stroke="#8643FF" stroke-width="2"/>
<line y1="-1" x2="8.42793" y2="-1" transform="matrix(-0.939468 0.342637 -0.341404 -0.939916 900.765 518.369)" stroke="#8643FF" stroke-width="2"/>
<line y1="-1" x2="8.42644" y2="-1" transform="matrix(-0.984747 0.173992 -0.173305 -0.984868 901.028 500.438)" stroke="#8643FF" stroke-width="2"/>
<line x1="901.028" y1="483.541" x2="892.602" y2="483.541" stroke="#8643FF" stroke-width="2"/>
<line y1="-1" x2="8.42644" y2="-1" transform="matrix(-0.984747 -0.173993 0.173304 -0.984868 901.028 464.641)" stroke="#8643FF" stroke-width="2"/>
<line y1="-1" x2="8.44111" y2="-1" transform="matrix(-0.341405 0.939916 -0.939468 -0.342636 898.395 609.569)" stroke="#8643FF" stroke-width="2"/>
<line y1="-1" x2="8.42793" y2="-1" transform="matrix(-0.939468 -0.342637 0.341404 -0.939917 915.51 465.708)" stroke="#8643FF" stroke-width="2"/>
<line y1="-1" x2="8.43023" y2="-1" transform="matrix(-0.865584 -0.500764 0.499236 -0.866466 915.247 447.711)" stroke="#8643FF" stroke-width="2"/>
<line y1="-1" x2="8.43302" y2="-1" transform="matrix(-0.765397 -0.643558 0.642016 -0.766691 914.983 429.618)" stroke="#8643FF" stroke-width="2"/>
<line y1="-1" x2="8.43881" y2="-1" transform="matrix(-0.499233 0.866468 -0.865582 -0.500767 913.667 610.035)" stroke="#8643FF" stroke-width="2"/>
<line y1="-1" x2="8.43602" y2="-1" transform="matrix(-0.642018 0.76669 -0.765398 -0.643557 914.457 591.672)" stroke="#8643FF" stroke-width="2"/>
<line y1="-1" x2="8.43301" y2="-1" transform="matrix(-0.765397 0.643558 -0.642017 -0.76669 914.983 573.455)" stroke="#8643FF" stroke-width="2"/>
<line y1="-1" x2="8.43024" y2="-1" transform="matrix(-0.865583 0.500765 -0.499236 -0.866466 915.247 555.362)" stroke="#8643FF" stroke-width="2"/>
<line y1="-1" x2="8.42793" y2="-1" transform="matrix(-0.939468 0.342637 -0.341404 -0.939916 915.51 537.365)" stroke="#8643FF" stroke-width="2"/>
<line y1="-1" x2="8.42643" y2="-1" transform="matrix(-0.984747 0.173992 -0.173305 -0.984868 915.773 519.433)" stroke="#8643FF" stroke-width="2"/>
<line x1="915.773" y1="502.536" x2="907.347" y2="502.536" stroke="#8643FF" stroke-width="2"/>
<line y1="-1" x2="8.42643" y2="-1" transform="matrix(-0.984747 -0.173993 0.173304 -0.984868 915.773 483.64)" stroke="#8643FF" stroke-width="2"/>
<line y1="-1" x2="8.42791" y2="-1" transform="matrix(-0.939468 -0.342636 0.341405 -0.939916 930.255 484.704)" stroke="#8643FF" stroke-width="2"/>
<line y1="-1" x2="8.43022" y2="-1" transform="matrix(-0.865583 -0.500765 0.499236 -0.866466 929.992 466.709)" stroke="#8643FF" stroke-width="2"/>
<line y1="-1" x2="8.43303" y2="-1" transform="matrix(-0.765398 -0.643558 0.642017 -0.76669 929.729 448.616)" stroke="#8643FF" stroke-width="2"/>
<line y1="-1" x2="8.43602" y2="-1" transform="matrix(-0.642018 -0.766689 0.765399 -0.643557 929.202 430.399)" stroke="#8643FF" stroke-width="2"/>
<line y1="-1" x2="8.43602" y2="-1" transform="matrix(-0.642018 0.766689 -0.765398 -0.643557 929.202 610.668)" stroke="#8643FF" stroke-width="2"/>
<line y1="-1" x2="8.43302" y2="-1" transform="matrix(-0.765398 0.643557 -0.642018 -0.76669 929.729 592.451)" stroke="#8643FF" stroke-width="2"/>
<line y1="-1" x2="8.43022" y2="-1" transform="matrix(-0.865583 0.500765 -0.499235 -0.866467 929.992 574.358)" stroke="#8643FF" stroke-width="2"/>
<line y1="-1" x2="8.42792" y2="-1" transform="matrix(-0.939468 0.342637 -0.341404 -0.939917 930.255 556.363)" stroke="#8643FF" stroke-width="2"/>
<line y1="-1" x2="8.42641" y2="-1" transform="matrix(-0.984747 0.173993 -0.173304 -0.984868 930.519 538.432)" stroke="#8643FF" stroke-width="2"/>
<line x1="930.519" y1="521.535" x2="922.093" y2="521.535" stroke="#8643FF" stroke-width="2"/>
<line y1="-1" x2="8.42641" y2="-1" transform="matrix(-0.984747 -0.173993 0.173304 -0.984868 930.519 502.635)" stroke="#8643FF" stroke-width="2"/>
</g>
</svg>
