<svg width="215" height="40" viewBox="0 0 215 40" fill="none" xmlns="http://www.w3.org/2000/svg">
<path d="M52.4779 21.1587C52.0002 21.1587 51.6207 21.0159 51.335 20.7301C51.0492 20.4444 50.9063 20.0693 50.9063 19.605V6.56781H46.513C45.5486 6.56781 45.0664 6.13919 45.0664 5.28195C45.0664 4.42471 45.5486 3.99609 46.513 3.99609H58.425C59.3894 3.99609 59.8716 4.42471 59.8716 5.28195C59.8716 6.13919 59.3894 6.56781 58.425 6.56781H54.0317V19.605C54.0317 20.0693 53.8888 20.4444 53.6031 20.7301C53.3263 21.0159 52.9512 21.1587 52.4779 21.1587Z" fill="#2F4FAA"/>
<path d="M69.5834 8.92596C72.356 8.92596 73.7445 10.5467 73.7445 13.7836V19.7307C73.7445 20.1861 73.6061 20.5433 73.3338 20.8023C73.0704 21.0523 72.7087 21.1773 72.2444 21.1773C71.7666 21.1773 71.3916 21.0523 71.1192 20.8023C70.8424 20.5433 70.7085 20.1861 70.7085 19.7307V13.7836C70.7085 12.9264 70.5344 12.3013 70.1906 11.9084C69.8423 11.5155 69.3021 11.3191 68.5654 11.3191C67.6948 11.3191 66.9983 11.5959 66.4759 12.1406C65.949 12.6898 65.6901 13.422 65.6901 14.3373V19.7307C65.6901 20.1861 65.5517 20.5433 65.2793 20.8023C65.0025 21.0523 64.6364 21.1773 64.172 21.1773C63.7077 21.1773 63.3371 21.0523 63.0648 20.8023C62.8014 20.5433 62.6719 20.1861 62.6719 19.7307V5.2827C62.6719 4.86747 62.8058 4.52815 63.0826 4.26473C63.3684 4.00577 63.7345 3.87183 64.1899 3.87183C64.6408 3.87183 65.0025 3.99684 65.2793 4.24687C65.5517 4.48797 65.6901 4.8139 65.6901 5.22912V10.8547C66.0919 10.2386 66.6277 9.76088 67.2974 9.42602C67.9626 9.09562 68.7261 8.92596 69.5834 8.92596Z" fill="#2F4FAA"/>
<path d="M87.3913 17.8015C87.6636 17.8015 87.8824 17.9087 88.0521 18.123C88.2173 18.3284 88.3021 18.6052 88.3021 18.9624C88.3021 19.4624 88.003 19.8821 87.4091 20.2125C86.86 20.525 86.2394 20.7751 85.5518 20.9626C84.8598 21.1412 84.199 21.2305 83.5694 21.2305C81.663 21.2305 80.1494 20.6858 79.0332 19.5874C77.9259 18.4936 77.3723 16.9934 77.3723 15.0869C77.3723 13.8859 77.6134 12.8188 78.1045 11.8902C78.5912 10.9525 79.2698 10.2248 80.1405 9.71134C81.02 9.18896 82.0157 8.92554 83.123 8.92554C84.1945 8.92554 85.1232 9.16664 85.909 9.6399C86.6948 10.1042 87.302 10.765 87.7306 11.6223C88.1682 12.4706 88.3914 13.4707 88.3914 14.6226C88.3914 15.328 88.0878 15.6763 87.4806 15.6763H80.3548C80.4486 16.7836 80.7566 17.6006 81.2835 18.123C81.8192 18.6498 82.5916 18.9088 83.6052 18.9088C84.1275 18.9088 84.5874 18.8463 84.9803 18.7123C85.3732 18.5829 85.8197 18.4043 86.3197 18.1766C86.8064 17.9265 87.1636 17.8015 87.3913 17.8015ZM83.1944 11.0508C82.3729 11.0508 81.7165 11.3142 81.2299 11.8366C80.7388 12.35 80.4486 13.0867 80.3548 14.0511H85.8197C85.784 13.0644 85.5384 12.3188 85.0875 11.8187C84.6321 11.3097 84.0025 11.0508 83.1944 11.0508Z" fill="#2F4FAA"/>
<path d="M102.845 12.247C103.832 12.5238 104.596 13.0239 105.131 13.7472C105.667 14.4615 105.935 15.3456 105.935 16.3903C105.935 17.8459 105.417 18.9799 104.381 19.8014C103.345 20.6229 101.917 21.0337 100.095 21.0337H93.8622C93.3845 21.0337 93.0139 20.9087 92.755 20.6587C92.4915 20.3997 92.3621 20.0291 92.3621 19.5514V5.4784C92.3621 5.00513 92.4915 4.63902 92.755 4.38899C93.0139 4.13004 93.3845 3.99609 93.8622 3.99609H99.845C101.618 3.99609 103.006 4.38899 104.006 5.1748C105.015 5.95167 105.524 7.04108 105.524 8.44302C105.524 9.34937 105.283 10.1352 104.81 10.8004C104.332 11.4567 103.676 11.9389 102.845 12.247ZM95.3981 11.1755H99.345C101.488 11.1755 102.56 10.3807 102.56 8.78234C102.56 7.97422 102.292 7.3804 101.756 6.99643C101.22 6.60353 100.417 6.40708 99.345 6.40708H95.3981V11.1755ZM99.7557 18.6227C100.885 18.6227 101.707 18.4218 102.22 18.0155C102.729 17.6137 102.988 16.9797 102.988 16.1224C102.988 15.2786 102.725 14.6491 102.202 14.2294C101.676 13.8008 100.863 13.5865 99.7557 13.5865H95.3981V18.6227H99.7557Z" fill="#2F4FAA"/>
<path d="M119.141 8.97925C119.605 8.97925 119.971 9.11319 120.248 9.37215C120.52 9.62218 120.659 9.97043 120.659 10.408V19.784C120.659 20.2037 120.516 20.543 120.23 20.802C119.953 21.052 119.592 21.177 119.141 21.177C118.712 21.177 118.364 21.0565 118.105 20.8199C117.841 20.5832 117.712 20.2484 117.712 19.8197V19.2304C117.341 19.8733 116.841 20.3689 116.212 20.7127C115.591 21.0565 114.881 21.2306 114.087 21.2306C111.193 21.2306 109.747 19.6054 109.747 16.3551V10.408C109.747 9.97043 109.881 9.62218 110.158 9.37215C110.43 9.11319 110.792 8.97925 111.247 8.97925C111.711 8.97925 112.077 9.11319 112.354 9.37215C112.627 9.62218 112.765 9.97043 112.765 10.408V16.3729C112.765 17.2078 112.93 17.8284 113.265 18.2303C113.609 18.6366 114.145 18.8375 114.872 18.8375C115.703 18.8375 116.373 18.5651 116.873 18.016C117.382 17.4579 117.641 16.7123 117.641 15.7836V10.408C117.641 9.97043 117.775 9.62218 118.051 9.37215C118.324 9.11319 118.685 8.97925 119.141 8.97925Z" fill="#2F4FAA"/>
<path d="M131.893 8.92383C133.308 8.92383 134.362 9.33012 135.054 10.1382C135.755 10.9374 136.108 12.1519 136.108 13.7815V19.7286C136.108 20.184 135.969 20.5412 135.697 20.8002C135.434 21.0502 135.072 21.1752 134.608 21.1752C134.13 21.1752 133.755 21.0502 133.483 20.8002C133.206 20.5412 133.072 20.184 133.072 19.7286V13.9601C133.072 13.0314 132.898 12.3617 132.554 11.942C132.206 11.5268 131.665 11.317 130.929 11.317C130.058 11.317 129.362 11.5938 128.839 12.1385C128.312 12.6876 128.053 13.4199 128.053 14.3351V19.7286C128.053 20.184 127.915 20.5412 127.643 20.8002C127.366 21.0502 127 21.1752 126.535 21.1752C126.071 21.1752 125.7 21.0502 125.428 20.8002C125.165 20.5412 125.035 20.184 125.035 19.7286V10.3704C125.035 9.95519 125.169 9.62033 125.446 9.37031C125.718 9.11135 126.089 8.97741 126.553 8.97741C126.968 8.97741 127.308 9.10242 127.571 9.35245C127.844 9.60248 127.982 9.93287 127.982 10.3347V10.9776C128.384 10.3258 128.92 9.81678 129.589 9.4596C130.268 9.10242 131.036 8.92383 131.893 8.92383Z" fill="#2F4FAA"/>
<path d="M150.9 18.6949C151.23 18.9941 151.4 19.3378 151.4 19.7307C151.4 20.1013 151.261 20.4362 150.989 20.7309C150.725 21.0166 150.417 21.1595 150.06 21.1595C149.703 21.1595 149.373 21.0121 149.078 20.713L143.417 15.6053V19.7307C143.417 20.1951 143.265 20.5523 142.97 20.8023C142.684 21.0389 142.327 21.1595 141.899 21.1595C141.457 21.1595 141.095 21.0389 140.809 20.8023C140.532 20.5523 140.398 20.1951 140.398 19.7307V5.30056C140.398 4.83622 140.532 4.48797 140.809 4.24687C141.095 3.99684 141.457 3.87183 141.899 3.87183C142.327 3.87183 142.684 3.99684 142.97 4.24687C143.265 4.48797 143.417 4.83622 143.417 5.30056V14.3909L148.596 9.44388C148.882 9.1492 149.207 8.9974 149.578 8.9974C149.944 8.9974 150.266 9.13581 150.542 9.40816C150.815 9.68497 150.953 10.0064 150.953 10.3726C150.953 10.7431 150.797 11.0825 150.489 11.3905L146.703 14.9266L150.9 18.6949Z" fill="#2F4FAA"/>
<path d="M163.934 17.7998C164.207 17.7998 164.425 17.907 164.595 18.1213C164.76 18.3267 164.845 18.6035 164.845 18.9607C164.845 19.4607 164.546 19.8804 163.952 20.2108C163.403 20.5233 162.782 20.7734 162.095 20.9609C161.403 21.1395 160.742 21.2288 160.112 21.2288C158.206 21.2288 156.692 20.6841 155.576 19.5857C154.469 18.4919 153.915 16.9917 153.915 15.0852C153.915 13.8842 154.156 12.8171 154.648 11.8884C155.134 10.9508 155.813 10.2231 156.683 9.70963C157.563 9.18725 158.559 8.92383 159.666 8.92383C160.737 8.92383 161.666 9.16493 162.452 9.63819C163.238 10.1025 163.845 10.7633 164.274 11.6206C164.711 12.4689 164.934 13.469 164.934 14.6209C164.934 15.3263 164.631 15.6746 164.024 15.6746H156.898C156.992 16.7818 157.3 17.5989 157.826 18.1213C158.362 18.6481 159.135 18.9071 160.148 18.9071C160.671 18.9071 161.13 18.8446 161.523 18.7106C161.916 18.5812 162.363 18.4026 162.863 18.1749C163.349 17.9248 163.707 17.7998 163.934 17.7998ZM159.737 11.0491C158.916 11.0491 158.26 11.3125 157.773 11.8349C157.282 12.3483 156.992 13.085 156.898 14.0494H162.363C162.327 13.0627 162.081 12.3171 161.63 11.817C161.175 11.308 160.545 11.0491 159.737 11.0491Z" fill="#2F4FAA"/>
<path d="M175.223 8.97787C175.638 8.94215 175.964 9.03145 176.205 9.24576C176.455 9.45114 176.58 9.76367 176.58 10.1923C176.58 10.6209 176.473 10.9424 176.259 11.1567C176.053 11.3621 175.678 11.496 175.134 11.5674L174.401 11.6389C173.446 11.7371 172.749 12.0586 172.312 12.6033C171.87 13.1524 171.651 13.8356 171.651 14.6571V19.7291C171.651 20.1934 171.499 20.5506 171.205 20.8006C170.919 21.0506 170.562 21.1757 170.133 21.1757C169.691 21.1757 169.329 21.0506 169.044 20.8006C168.767 20.5506 168.633 20.1934 168.633 19.7291V10.3709C168.633 9.91994 168.767 9.57615 169.044 9.33505C169.329 9.09842 169.678 8.97787 170.097 8.97787C170.526 8.97787 170.865 9.09842 171.115 9.33505C171.374 9.56276 171.508 9.89761 171.508 10.3352V11.2996C171.816 10.5852 172.267 10.0405 172.865 9.65652C173.473 9.26361 174.142 9.04484 174.884 8.99573L175.223 8.97787Z" fill="#2F4FAA"/>
<path d="M180.614 21.1764C180.172 21.1764 179.81 21.0514 179.525 20.8014C179.248 20.5513 179.114 20.1942 179.114 19.7298V10.4074C179.114 9.93409 179.248 9.57691 179.525 9.33581C179.81 9.09918 180.172 8.97863 180.614 8.97863C181.043 8.97863 181.4 9.09918 181.686 9.33581C181.98 9.57691 182.132 9.93409 182.132 10.4074V19.7298C182.132 20.1942 181.98 20.5513 181.686 20.8014C181.4 21.0514 181.043 21.1764 180.614 21.1764ZM180.614 6.81767C180.065 6.81767 179.632 6.67033 179.31 6.37119C178.989 6.07652 178.828 5.68808 178.828 5.21035C178.828 4.72369 178.989 4.33525 179.31 4.04951C179.632 3.75483 180.065 3.60303 180.614 3.60303C181.15 3.60303 181.578 3.75483 181.9 4.04951C182.23 4.33525 182.4 4.72369 182.4 5.21035C182.4 5.68808 182.239 6.07652 181.918 6.37119C181.596 6.67033 181.159 6.81767 180.614 6.81767Z" fill="#2F4FAA"/>
<path d="M193.341 8.92383C194.756 8.92383 195.81 9.33012 196.502 10.1382C197.203 10.9374 197.556 12.1519 197.556 13.7815V19.7286C197.556 20.184 197.417 20.5412 197.145 20.8002C196.882 21.0502 196.52 21.1752 196.056 21.1752C195.578 21.1752 195.203 21.0502 194.931 20.8002C194.654 20.5412 194.52 20.184 194.52 19.7286V13.9601C194.52 13.0314 194.346 12.3617 194.002 11.942C193.654 11.5268 193.113 11.317 192.377 11.317C191.506 11.317 190.81 11.5938 190.287 12.1385C189.76 12.6876 189.501 13.4199 189.501 14.3351V19.7286C189.501 20.184 189.363 20.5412 189.091 20.8002C188.814 21.0502 188.448 21.1752 187.983 21.1752C187.519 21.1752 187.148 21.0502 186.876 20.8002C186.613 20.5412 186.483 20.184 186.483 19.7286V10.3704C186.483 9.95519 186.617 9.62033 186.894 9.37031C187.166 9.11135 187.537 8.97741 188.001 8.97741C188.416 8.97741 188.756 9.10242 189.019 9.35245C189.292 9.60248 189.43 9.93287 189.43 10.3347V10.9776C189.832 10.3258 190.368 9.81678 191.037 9.4596C191.716 9.10242 192.484 8.92383 193.341 8.92383Z" fill="#2F4FAA"/>
<path d="M211.844 8.97863C212.294 8.97863 212.656 9.11257 212.933 9.37153C213.205 9.62156 213.344 9.96981 213.344 10.4074V19.9441C213.344 21.8015 212.826 23.199 211.79 24.141C210.763 25.092 209.245 25.5698 207.236 25.5698C205.472 25.5698 204.003 25.2394 202.825 24.5875C202.226 24.2303 201.932 23.8017 201.932 23.3017C201.932 22.9445 202.012 22.6587 202.182 22.4444C202.36 22.239 202.584 22.1408 202.86 22.1408C203.003 22.1408 203.173 22.1765 203.378 22.248C203.593 22.3194 203.811 22.4087 204.039 22.5159C204.62 22.7525 205.137 22.9311 205.593 23.0516C206.057 23.1811 206.584 23.2481 207.182 23.2481C209.29 23.2481 210.343 22.2167 210.343 20.1584V18.6226C209.986 19.2789 209.468 19.7923 208.79 20.1584C208.12 20.5156 207.352 20.6942 206.486 20.6942C205.45 20.6942 204.53 20.4531 203.735 19.962C202.936 19.4753 202.311 18.7922 201.86 17.9082C201.405 17.0152 201.182 15.9883 201.182 14.8186C201.182 13.6666 201.4 12.6397 201.842 11.7468C202.293 10.8538 202.918 10.1663 203.718 9.67513C204.526 9.17508 205.45 8.92505 206.486 8.92505C207.352 8.92505 208.12 9.11257 208.79 9.47868C209.468 9.83586 209.986 10.3493 210.343 11.0146V10.3716C210.343 9.95641 210.477 9.62156 210.754 9.37153C211.026 9.11257 211.388 8.97863 211.844 8.97863ZM207.272 18.3547C208.245 18.3547 209.004 18.0421 209.54 17.4081C210.075 16.7786 210.343 15.9169 210.343 14.8186C210.343 13.7113 210.075 12.8451 209.54 12.2111C209.004 11.5816 208.245 11.2646 207.272 11.2646C206.33 11.2646 205.584 11.5816 205.039 12.2111C204.49 12.8451 204.218 13.7113 204.218 14.8186C204.218 15.9169 204.49 16.7786 205.039 17.4081C205.584 18.0421 206.33 18.3547 207.272 18.3547Z" fill="#2F4FAA"/>
<path d="M47.2427 38.467C46.5998 38.467 46.1086 38.2706 45.7782 37.8777C45.4434 37.4758 45.2603 36.9267 45.2246 36.2346L46.1533 35.9846C46.189 36.4757 46.2828 36.8731 46.439 37.1811C46.6042 37.4803 46.8721 37.6276 47.2427 37.6276C47.515 37.6276 47.7249 37.5517 47.8678 37.3955C48.0106 37.2437 48.0821 37.0204 48.0821 36.7347C48.0821 36.4132 48.0151 36.1542 47.8856 35.9489C47.7517 35.7479 47.5374 35.5202 47.2427 35.2702L45.9747 34.1272C45.7113 33.904 45.5193 33.6629 45.4032 33.4129C45.296 33.1539 45.2425 32.8324 45.2425 32.4485C45.2425 31.8904 45.3943 31.4573 45.7068 31.1448C46.0283 30.8367 46.4658 30.6804 47.0284 30.6804C47.6222 30.6804 48.0731 30.8412 48.3857 31.1626C48.6937 31.4841 48.8768 31.9841 48.9393 32.6628L48.0464 32.895C48.0106 32.4574 47.9213 32.1181 47.7785 31.877C47.6356 31.627 47.3856 31.5019 47.0284 31.5019C46.7516 31.5019 46.5462 31.5734 46.4033 31.7162C46.2604 31.8591 46.189 32.069 46.189 32.3413C46.189 32.569 46.2247 32.761 46.2962 32.9128C46.3676 33.0691 46.4971 33.2253 46.6891 33.3771L47.9749 34.5023C48.3053 34.8014 48.5687 35.1229 48.7607 35.4667C48.9616 35.8149 49.0643 36.2078 49.0643 36.6454C49.0643 37.2079 48.8902 37.6544 48.5464 37.9848C48.2115 38.3063 47.7785 38.467 47.2427 38.467Z" fill="#919292"/>
<path d="M52.418 30.752H53.4895V34.0559H55.4362V30.752H56.5077V38.3778H55.4362V34.806H53.4895V38.3778H52.418V30.752Z" fill="#919292"/>
<path d="M60.282 30.752H61.3357V38.3778H60.282V30.752Z" fill="#919292"/>
<path d="M65.0879 30.752H66.981C67.6328 30.752 68.1105 30.9305 68.4097 31.2877C68.7178 31.6449 68.874 32.1718 68.874 32.8593C68.874 33.4799 68.7133 33.9621 68.3918 34.3059C68.0704 34.6542 67.606 34.8238 66.9988 34.8238H66.1594V38.3778H65.0879V30.752ZM66.6416 34.0738C66.9631 34.0738 67.2042 34.038 67.3739 33.9666C67.5391 33.8952 67.6596 33.7791 67.731 33.6094C67.8114 33.4442 67.8561 33.1987 67.8561 32.8772C67.8561 32.4843 67.8248 32.1985 67.7668 32.02C67.7176 31.8324 67.6105 31.6985 67.4453 31.6271C67.2756 31.5556 67.0167 31.5199 66.6595 31.5199H66.1594V34.0738H66.6416Z" fill="#919292"/>
<path d="M73.9407 38.4677C73.2978 38.4677 72.8066 38.2713 72.4762 37.8784C72.1414 37.4766 71.9583 36.9274 71.9226 36.2353L72.8513 35.9853C72.887 36.4764 72.9808 36.8738 73.137 37.1819C73.3022 37.481 73.5701 37.6284 73.9407 37.6284C74.213 37.6284 74.4229 37.5525 74.5658 37.3962C74.7086 37.2444 74.7801 37.0211 74.7801 36.7354C74.7801 36.4139 74.7131 36.155 74.5836 35.9496C74.4497 35.7487 74.2354 35.521 73.9407 35.2709L72.6727 34.128C72.4093 33.9047 72.2173 33.6636 72.1012 33.4136C71.994 33.1546 71.9405 32.8332 71.9405 32.4492C71.9405 31.8911 72.0923 31.458 72.4048 31.1455C72.7263 30.8374 73.1638 30.6812 73.7264 30.6812C74.3202 30.6812 74.7711 30.8419 75.0837 31.1633C75.3917 31.4848 75.5748 31.9849 75.6373 32.6635L74.7444 32.8957C74.7086 32.4581 74.6193 32.1188 74.4765 31.8777C74.3336 31.6277 74.0836 31.5027 73.7264 31.5027C73.4496 31.5027 73.2442 31.5741 73.1013 31.717C72.9584 31.8599 72.887 32.0697 72.887 32.3421C72.887 32.5698 72.9227 32.7617 72.9942 32.9135C73.0656 33.0698 73.1951 33.2261 73.3871 33.3779L74.6729 34.503C75.0033 34.8021 75.2667 35.1236 75.4587 35.4674C75.6596 35.8157 75.7623 36.2086 75.7623 36.6461C75.7623 37.2087 75.5882 37.6551 75.2444 37.9855C74.9095 38.307 74.4765 38.4677 73.9407 38.4677Z" fill="#919292"/>
<path d="M83.7976 30.752H85.5478C86.2354 30.752 86.7488 30.9082 87.0837 31.2163C87.4141 31.5288 87.5837 32.011 87.5837 32.6629C87.5837 33.6407 87.2176 34.1764 86.4943 34.2702C86.9453 34.3774 87.2712 34.5917 87.4766 34.9131C87.6909 35.2257 87.7981 35.6543 87.7981 36.199C87.7981 36.891 87.6284 37.4268 87.298 37.8063C86.9765 38.1903 86.4854 38.3778 85.8335 38.3778H83.7976V30.752ZM85.4942 33.9309C85.9318 33.9309 86.2354 33.8371 86.405 33.6451C86.5702 33.4576 86.6551 33.1272 86.6551 32.6629C86.6551 32.3325 86.6015 32.0869 86.4943 31.9307C86.3961 31.7655 86.2443 31.6583 86.03 31.6092C85.8246 31.5645 85.521 31.5378 85.1192 31.5378H84.8692V33.9309H85.4942ZM85.5835 37.6099C85.8916 37.6099 86.1282 37.5652 86.2979 37.467C86.4765 37.3732 86.6015 37.2259 86.6729 37.0205C86.7444 36.8196 86.7801 36.5472 86.7801 36.199C86.7801 35.7123 86.6774 35.3507 86.4765 35.1096C86.2711 34.8729 85.9452 34.7524 85.4942 34.7524H84.8692V37.6099H85.5835Z" fill="#919292"/>
<path d="M93.2205 38.4671C92.6936 38.4671 92.2784 38.3599 91.9703 38.1456C91.6712 37.9313 91.4703 37.6366 91.3631 37.2527C91.256 36.8732 91.2024 36.391 91.2024 35.8061V30.752H92.2025V35.8597C92.2025 36.4312 92.265 36.8732 92.399 37.1812C92.5418 37.4804 92.8142 37.6277 93.2205 37.6277C93.6357 37.6277 93.9081 37.4804 94.042 37.1812C94.1715 36.8732 94.2384 36.4312 94.2384 35.8597V30.752H95.2564V35.8061C95.2564 36.391 95.1939 36.8732 95.0778 37.2527C94.9707 37.6366 94.7653 37.9313 94.4706 38.1456C94.1715 38.3599 93.7562 38.4671 93.2205 38.4671Z" fill="#919292"/>
<path d="M98.8958 30.752H99.628L101.789 35.8239V30.752H102.682V38.3778H102.003L99.8066 33.1808V38.3778H98.8958V30.752Z" fill="#919292"/>
<path d="M106.397 30.752H107.469V34.3416L109.219 30.752H110.201L108.701 34.1095L110.451 38.3778H109.415L107.951 34.806L107.469 35.6811V38.3778H106.397V30.752Z" fill="#919292"/>
<path d="M113.585 30.752H116.55V31.5378H114.657V34.0738H116.193V34.8238H114.657V37.6099H116.568V38.3778H113.585V30.752Z" fill="#919292"/>
<path d="M119.942 30.752H121.478C122.25 30.752 122.817 30.9127 123.175 31.2341C123.541 31.5467 123.728 32.0557 123.728 32.77C123.728 33.7612 123.411 34.355 122.782 34.5559L123.853 38.3778H122.835L121.835 34.806H121.014V38.3778H119.942V30.752ZM121.407 34.038C121.871 34.038 122.197 33.9487 122.389 33.7701C122.59 33.5826 122.692 33.2478 122.692 32.77C122.692 32.462 122.657 32.2164 122.585 32.0378C122.514 31.8592 122.389 31.7297 122.21 31.6449C122.041 31.5645 121.799 31.5199 121.478 31.5199H121.014V34.038H121.407Z" fill="#919292"/>
<path d="M127.41 30.752H128.464V38.3778H127.41V30.752Z" fill="#919292"/>
<path d="M132.216 30.752H132.948L135.109 35.8239V30.752H136.002V38.3778H135.324L133.127 33.1808V38.3778H132.216V30.752Z" fill="#919292"/>
<path d="M141.536 38.4677C140.844 38.4677 140.343 38.2534 140.035 37.8248C139.723 37.3873 139.571 36.7354 139.571 35.8782V33.3243C139.571 32.7305 139.629 32.2483 139.75 31.8777C139.879 31.4982 140.093 31.208 140.393 31.0026C140.687 30.7883 141.098 30.6812 141.625 30.6812C142.326 30.6812 142.83 30.8687 143.143 31.2348C143.451 31.592 143.607 32.1545 143.607 32.9135V33.1993H142.607V32.9493C142.607 32.5921 142.58 32.3197 142.536 32.1277C142.5 31.9268 142.411 31.7795 142.268 31.6813C142.125 31.5741 141.915 31.5205 141.643 31.5205C141.344 31.5205 141.125 31.5875 140.982 31.717C140.839 31.8509 140.741 32.0295 140.696 32.2528C140.66 32.4805 140.643 32.7841 140.643 33.1636V35.9853C140.643 36.5702 140.714 36.9944 140.857 37.2533C141 37.5033 141.268 37.6284 141.661 37.6284C142.053 37.6284 142.321 37.4944 142.464 37.2176C142.616 36.9318 142.696 36.4854 142.696 35.8782V35.3602H141.732V34.6102H143.661V38.3784H143L142.893 37.5033C142.652 38.1463 142.201 38.4677 141.536 38.4677Z" fill="#919292"/>
<path d="M151.71 30.752H152.603L153.406 36.2347L154.442 30.7877H155.192L156.228 36.2526L157.032 30.752H157.889L156.675 38.3778H155.889L154.835 32.7343L153.764 38.3778H152.96L151.71 30.752Z" fill="#919292"/>
<path d="M163.3 38.467C162.559 38.467 162.024 38.2616 161.693 37.8419C161.372 37.4133 161.211 36.7972 161.211 35.9846V33.0914C161.211 32.3056 161.372 31.7118 161.693 31.3055C162.024 30.8903 162.559 30.6804 163.3 30.6804C164.037 30.6804 164.568 30.8903 164.89 31.3055C165.22 31.7118 165.39 32.3056 165.39 33.0914V36.0024C165.39 36.7882 165.22 37.3955 164.89 37.8241C164.568 38.2527 164.037 38.467 163.3 38.467ZM163.3 37.6276C163.693 37.6276 163.961 37.516 164.104 37.2883C164.247 37.0517 164.318 36.6945 164.318 36.2168V32.8771C164.318 32.4128 164.247 32.0734 164.104 31.8591C163.961 31.6359 163.693 31.5198 163.3 31.5198C162.908 31.5198 162.64 31.6359 162.497 31.8591C162.354 32.0734 162.282 32.4128 162.282 32.8771V36.2168C162.282 36.6945 162.354 37.0517 162.497 37.2883C162.64 37.516 162.908 37.6276 163.3 37.6276Z" fill="#919292"/>
<path d="M168.955 30.752H170.491C171.263 30.752 171.83 30.9127 172.188 31.2341C172.554 31.5467 172.741 32.0557 172.741 32.77C172.741 33.7612 172.424 34.355 171.795 34.5559L172.866 38.3778H171.848L170.848 34.806H170.027V38.3778H168.955V30.752ZM170.42 34.038C170.884 34.038 171.21 33.9487 171.402 33.7701C171.603 33.5826 171.705 33.2478 171.705 32.77C171.705 32.462 171.67 32.2164 171.598 32.0378C171.527 31.8592 171.402 31.7297 171.223 31.6449C171.054 31.5645 170.812 31.5199 170.491 31.5199H170.027V34.038H170.42Z" fill="#919292"/>
<path d="M176.367 30.752H177.439V37.6099H179.385V38.3778H176.367V30.752Z" fill="#919292"/>
<path d="M182.637 30.752H184.298C185.119 30.752 185.695 30.9439 186.03 31.3234C186.374 31.694 186.548 32.2789 186.548 33.0736V35.8775C186.548 36.7258 186.378 37.3554 186.048 37.7706C185.713 38.1769 185.159 38.3778 184.387 38.3778H182.637V30.752ZM184.298 37.6099C184.677 37.6099 184.949 37.5384 185.119 37.3956C185.284 37.2527 185.387 37.0562 185.423 36.8062C185.458 36.5562 185.476 36.1811 185.476 35.6811V33.2165C185.476 32.779 185.445 32.4441 185.387 32.2164C185.338 31.9932 185.231 31.8235 185.066 31.7163C184.896 31.6003 184.637 31.5378 184.28 31.5378H183.708V37.6099H184.298Z" fill="#919292"/>
<path d="M189.874 30.752H190.767L191.57 36.2347L192.606 30.7877H193.356L194.392 36.2526L195.196 30.752H196.053L194.839 38.3778H194.053L192.999 32.7343L191.928 38.3778H191.124L189.874 30.752Z" fill="#919292"/>
<path d="M199.566 30.752H200.62V38.3778H199.566V30.752Z" fill="#919292"/>
<path d="M204.375 30.752H206.036C206.857 30.752 207.433 30.9439 207.768 31.3234C208.112 31.694 208.286 32.2789 208.286 33.0736V35.8775C208.286 36.7258 208.116 37.3554 207.786 37.7706C207.451 38.1769 206.898 38.3778 206.125 38.3778H204.375V30.752ZM206.036 37.6099C206.415 37.6099 206.688 37.5384 206.857 37.3956C207.023 37.2527 207.125 37.0562 207.161 36.8062C207.197 36.5562 207.215 36.1811 207.215 35.6811V33.2165C207.215 32.779 207.183 32.4441 207.125 32.2164C207.076 31.9932 206.969 31.8235 206.804 31.7163C206.634 31.6003 206.375 31.5378 206.018 31.5378H205.447V37.6099H206.036Z" fill="#919292"/>
<path d="M211.863 30.752H214.828V31.5378H212.935V34.0738H214.471V34.8238H212.935V37.6099H214.846V38.3778H211.863V30.752Z" fill="#919292"/>
<mask id="mask0_0_12279" style="mask-type:luminance" maskUnits="userSpaceOnUse" x="0" y="0" width="41" height="40">
<path d="M0.576172 0H40.6387V40H0.576172V0Z" fill="white"/>
</mask>
<g mask="url(#mask0_0_12279)">
<path d="M17.5071 39.8527C17.3553 39.7812 17.0651 39.7232 16.8597 39.7187C16.3105 39.7009 12.8994 38.6248 12.2476 38.2587C11.9395 38.0846 11.185 37.6694 10.5733 37.3345C8.9347 36.4371 6.70231 34.5217 5.26911 32.7804C4.0413 31.2892 2.18395 28.1237 1.9741 27.1593C1.92053 26.9271 1.69729 26.1636 1.46958 25.4627C0.799866 23.3821 0.576627 20.2031 0.898092 17.3055C1.25527 14.1087 2.90278 10.1172 4.80478 7.84016C5.15749 7.42047 5.56825 6.92041 5.72006 6.72843C6.07724 6.28195 7.01038 5.34435 7.45686 4.98716C7.64884 4.83536 8.1489 4.4246 8.56413 4.07188C8.98381 3.72363 9.54638 3.30394 9.81426 3.14767C11.2385 2.2949 13.0066 1.38855 13.5558 1.22335C17.2749 0.111619 17.9446 0 20.628 0C22.6416 0 24.6552 0.21431 25.5482 0.517915C25.8518 0.62507 26.5706 0.848309 27.1421 1.01351C28.1735 1.31711 29.5799 1.97343 30.9952 2.81281C31.4015 3.05391 31.7676 3.25036 31.8123 3.25036C31.8569 3.25036 32.2766 3.57629 32.7454 3.98259C33.2097 4.38442 33.8884 4.95591 34.2545 5.24612C35.1385 5.95602 37.295 8.64829 37.9469 9.85824C38.2326 10.394 38.6255 11.1128 38.8175 11.4566C39.1925 12.1353 40.0989 14.8856 40.34 16.0822C40.6034 17.3993 40.6391 22.0158 40.398 23.4178C39.5497 28.3826 37.0227 32.6197 32.9508 35.9013C31.9373 36.7228 31.5354 36.9729 29.4504 38.1025C28.4503 38.6427 26.4902 39.3124 24.8561 39.6741C23.7444 39.9152 17.967 40.058 17.5071 39.8527ZM23.923 37.6158C25.7446 36.6871 27.7895 34.544 29.0084 32.2849C29.2897 31.758 29.4861 31.2446 29.4459 31.1374C29.3432 30.8695 21.6102 30.8427 21.3468 31.1061C21.1682 31.2892 21.0968 38.0444 21.2709 38.223C21.4897 38.4418 22.9675 38.1025 23.923 37.6158ZM19.5162 34.7673C19.5564 32.9322 19.5341 31.3115 19.4671 31.1642C19.3644 30.9365 19.2484 30.9142 18.5117 30.9901C18.0518 31.0392 16.3105 31.0794 14.6452 31.0794C11.7386 31.0794 11.6136 31.0883 11.6136 31.3517C11.6136 31.499 11.6716 31.6553 11.7386 31.6955C11.8056 31.7401 12.0333 32.1018 12.2386 32.5036C13.7076 35.3477 17.0695 38.2185 18.8242 38.1382L19.4493 38.1069L19.5162 34.7673ZM28.8476 36.6068C29.245 36.3567 29.8701 35.9951 30.2407 35.8076C31.7765 35.0173 35.5136 31.4991 35.2546 31.0794C35.1251 30.865 31.6471 30.8963 31.4774 31.1151C31.4015 31.2088 31.0131 31.9232 30.6157 32.7001C30.2183 33.4769 29.3968 34.7494 28.7941 35.5218C28.1913 36.2987 27.7002 36.9639 27.7002 36.9997C27.7002 37.1872 28.2092 37.0086 28.8476 36.6068ZM12.9843 36.388C12.8771 36.2496 12.4128 35.629 11.9484 35.0128C11.4841 34.3967 10.8367 33.3698 10.5108 32.7313C9.62674 30.9945 9.76069 31.0794 7.84976 31.0794C6.47014 31.0794 6.20672 31.1151 6.20672 31.2937C6.20672 31.566 8.66235 34.044 9.72943 34.8476C11.5109 36.1871 13.5468 37.1515 12.9843 36.388ZM8.91684 29.2577C8.97042 29.1774 8.91238 28.847 8.79629 28.53C8.44358 27.5834 7.76939 23.8821 7.6801 22.3998C7.63545 21.6453 7.5283 20.9398 7.439 20.8327C7.31845 20.6853 6.77821 20.6452 5.04588 20.6452C3.81806 20.6452 2.71972 20.7032 2.6081 20.7746C2.00982 21.1541 2.96082 25.6993 4.10381 27.9406C4.87621 29.4497 4.80031 29.4095 6.96127 29.4095C8.14444 29.4095 8.8588 29.356 8.91684 29.2577ZM19.5252 29.0479C19.6055 28.8291 19.6457 27.0878 19.6234 24.6992L19.5877 20.7121L14.596 20.6809C11.8457 20.6586 9.51959 20.6987 9.41243 20.7702C9.24724 20.8729 9.24277 21.1809 9.37225 22.6811C9.62228 25.5564 10.4349 28.9631 10.9528 29.2934C11.051 29.356 12.9887 29.4051 15.2568 29.4095H19.3868L19.5252 29.0479ZM30.3835 28.9586C31.147 27.7308 32.2275 21.0291 31.714 20.7077C31.5086 20.5827 21.5566 20.6273 21.4316 20.7568C21.3022 20.8863 21.1191 28.4407 21.2352 28.9005L21.3245 29.2711H30.1871L30.3835 28.9586ZM36.6655 28.9586C37.2236 28.3246 37.6924 27.3022 38.2192 25.5564C38.8532 23.4535 39.2193 20.8282 38.9113 20.6273C38.5987 20.4309 34.0312 20.4755 33.7589 20.6764C33.5803 20.8148 33.4999 21.2524 33.3883 22.6409C33.2321 24.5965 32.7722 27.2664 32.4686 27.9897C32.3614 28.2398 32.2721 28.6327 32.2721 28.8559V29.2711H34.3304C36.286 29.2711 36.3976 29.2533 36.6655 28.9586ZM7.50597 18.8191C7.59527 18.6896 7.68903 18.1226 7.71135 17.56C7.76493 16.1134 8.49269 12.1264 8.82308 11.4834C9.09097 10.961 8.89005 10.903 6.88983 10.903C5.1575 10.903 4.92979 10.9298 4.68869 11.1754C4.29133 11.5772 3.78234 12.6443 3.35819 13.9748C3.15281 14.6177 2.89831 15.4124 2.79116 15.7428C2.50095 16.6626 2.38486 18.6405 2.6081 18.9084C2.75991 19.0959 3.12602 19.1227 5.06373 19.0959C7.02824 19.0646 7.3631 19.0244 7.50597 18.8191ZM19.6546 15.0776C19.6948 12.9702 19.6725 11.1709 19.6055 11.0771C19.5118 10.9432 18.4804 10.903 15.239 10.903C12.8994 10.9075 10.926 10.9521 10.8412 11.0102C10.5867 11.1843 10.2161 12.3049 9.87231 13.9212C9.51512 15.6089 9.18919 18.453 9.31421 18.7744C9.37671 18.9485 10.1536 18.9709 14.4889 18.9396L19.5877 18.9039L19.6546 15.0776ZM31.6872 18.8012C32.0355 18.3681 31.3256 13.4747 30.6514 11.6665L30.3925 10.97H21.3914L21.32 14.774C21.2798 16.868 21.3022 18.6673 21.3602 18.7744C21.5165 19.0512 31.464 19.0736 31.6872 18.8012ZM38.822 18.8012C39.0273 18.6449 39.0318 18.4887 38.8711 17.3055C38.5764 15.0597 37.228 11.3852 36.5137 10.8628C36.2815 10.6932 32.4373 10.8226 32.2543 11.0057C32.1337 11.1262 32.156 11.2914 32.3302 11.662C32.4596 11.9344 32.6561 12.6755 32.7633 13.3051C32.8749 13.9346 33.0311 14.6713 33.107 14.9392C33.1874 15.2071 33.2901 16.1357 33.3392 17.0019C33.3973 18.0779 33.491 18.6405 33.6205 18.7744C33.8884 19.0423 38.4826 19.0646 38.822 18.8012ZM9.42583 9.19745C9.54638 9.10369 9.97946 8.367 10.3858 7.56334C10.7921 6.75968 11.5823 5.51401 12.1404 4.79518C12.7208 4.04956 13.1048 3.43342 13.0334 3.36645C12.8771 3.20571 10.5822 4.53175 9.48387 5.41578C7.88101 6.71057 5.86739 8.86706 5.98348 9.17067C6.08617 9.43855 9.09097 9.46088 9.42583 9.19745ZM19.61 9.07691C19.7573 8.95189 19.7931 8.17948 19.7931 5.39346V1.86181L19.4493 1.77698C18.9939 1.6609 18.6054 1.76805 17.3642 2.34848C16.0873 2.95122 14.5201 4.29512 13.4352 5.73278C12.4217 7.06775 11.3502 9.06798 11.5689 9.20638C11.8368 9.37158 19.4002 9.25103 19.61 9.07691ZM29.5575 9.11262C29.6736 8.92957 28.4905 6.81773 27.6421 5.68367C26.5706 4.25494 25.1954 3.06731 23.856 2.41545C22.5657 1.79038 22.1415 1.6609 21.7665 1.77698C21.5209 1.85735 21.4986 2.08059 21.4093 5.35328C21.3379 7.90267 21.3557 8.89831 21.4718 9.04119C21.6013 9.19745 22.3871 9.23317 25.5571 9.23317C27.718 9.23317 29.5174 9.1796 29.5575 9.11262ZM35.3841 9.11262C35.4868 8.9385 33.8661 7.07668 32.8168 6.16587C31.4372 4.9693 30.897 4.58087 29.8031 4.00045L28.3476 3.21911C28.1065 3.08963 27.8609 2.98248 27.8073 2.97801C27.6466 2.96462 28.1913 3.80399 29.0486 4.88001C29.4861 5.43364 30.2228 6.60788 30.6782 7.48744C31.1381 8.367 31.6024 9.11262 31.7185 9.14388C32.1293 9.2555 35.3082 9.22871 35.3841 9.11262Z" fill="#2F4FAA"/>
</g>
</svg>
