<svg width="173" height="40" viewBox="0 0 173 40" fill="none" xmlns="http://www.w3.org/2000/svg">
<g clip-path="url(#clip0_0_12268)">
<path d="M156.564 39.5413C154.174 39.5413 152.323 38.8681 151.01 37.5218C149.732 36.1759 149.092 34.3079 149.092 31.9184V1.83154H152.676V31.6155C152.676 33.1973 153.047 34.4089 153.787 35.2502C154.528 36.058 155.638 36.4616 157.119 36.4616C158.061 36.4616 158.869 36.3103 159.542 36.0074L159.794 38.986C158.751 39.356 157.674 39.5413 156.564 39.5413Z" fill="#2B2B2B"/>
<path d="M142.752 39.5413C140.363 39.5413 138.512 38.8681 137.199 37.5218C135.92 36.1759 135.281 34.3079 135.281 31.9184V1.83154H138.865V31.6155C138.865 33.1973 139.235 34.4089 139.976 35.2502C140.716 36.058 141.827 36.4616 143.308 36.4616C144.25 36.4616 145.058 36.3103 145.731 36.0074L145.983 38.986C144.94 39.356 143.863 39.5413 142.752 39.5413Z" fill="#2B2B2B"/>
<path d="M123.491 12.7366H127.075V39.2897H123.491V12.7366Z" fill="#2B2B2B"/>
<path d="M105.179 25.9616L98.9193 31.7165V39.2887H95.3352V1.83154H98.9193V27.2237L114.771 12.7355H119.213L107.855 23.589L120.273 39.2887H115.881L105.179 25.9616Z" fill="#2B2B2B"/>
<path d="M79.5207 39.5445C77.3668 39.5445 75.2972 39.2418 73.3116 38.636C71.3596 37.9964 69.8284 37.2058 68.7178 36.2634L70.3333 33.4364C71.4439 34.3114 72.8403 35.035 74.5232 35.6071C76.2057 36.1456 77.956 36.4148 79.7733 36.4148C82.1963 36.4148 83.9801 36.0447 85.1243 35.3042C86.3023 34.5302 86.8911 33.4532 86.8911 32.0734C86.8911 31.0974 86.5715 30.3402 85.9318 29.8018C85.2925 29.2296 84.4846 28.8089 83.5088 28.5397C82.5329 28.2368 81.2371 27.9508 79.6216 27.6815C77.468 27.2777 75.7347 26.8738 74.4223 26.47C73.1095 26.0325 71.9823 25.3089 71.0399 24.2993C70.1311 23.2896 69.6771 21.893 69.6771 20.1093C69.6771 17.8881 70.6025 16.0708 72.4533 14.6573C74.3044 13.2438 76.8789 12.5371 80.1769 12.5371C81.8933 12.5371 83.6097 12.7727 85.3261 13.2438C87.0425 13.6814 88.4558 14.2703 89.5664 15.0107L88.0017 17.8881C85.814 16.3737 83.2061 15.6165 80.1769 15.6165C77.8886 15.6165 76.1553 16.0203 74.9776 16.828C73.8331 17.6357 73.2612 18.6958 73.2612 20.0084C73.2612 21.018 73.5808 21.8257 74.2201 22.4315C74.8933 23.0373 75.7178 23.4916 76.694 23.7945C77.6698 24.0637 79.0158 24.3498 80.7322 24.6526C82.8525 25.0565 84.552 25.4604 85.8309 25.8642C87.1098 26.2681 88.2035 26.958 89.1124 27.9339C90.0208 28.9099 90.4753 30.2561 90.4753 31.9724C90.4753 34.2946 89.4994 36.1456 87.5473 37.5254C85.6291 38.8717 82.9534 39.5445 79.5207 39.5445Z" fill="#2B2B2B"/>
<path d="M125.485 8.5959C127.762 8.5959 129.608 6.74979 129.608 4.47251C129.608 2.19522 127.762 0.349121 125.485 0.349121C123.207 0.349121 121.361 2.19522 121.361 4.47251C121.361 6.74979 123.207 8.5959 125.485 8.5959Z" fill="#0621E8"/>
<path d="M168.292 39.5541C170.569 39.5541 172.415 37.708 172.415 35.4308C172.415 33.1535 170.569 31.3074 168.292 31.3074C166.014 31.3074 164.168 33.1535 164.168 35.4308C164.168 37.708 166.014 39.5541 168.292 39.5541Z" fill="#0621E8"/>
<path d="M63.7179 1.83179V39.2889H56.1965V36.1592C54.2444 38.5149 51.4174 39.6929 47.7154 39.6929C45.1579 39.6929 42.8358 39.1206 40.7489 37.9765C38.6963 36.8323 37.0808 35.2 35.9028 33.0798C34.725 30.9595 34.136 28.5028 34.136 25.7095C34.136 22.9161 34.725 20.4594 35.9028 18.3392C37.0808 16.219 38.6963 14.5867 40.7489 13.4425C42.8358 12.2982 45.1579 11.7261 47.7154 11.7261C51.1817 11.7261 53.8909 12.8199 55.843 15.0074V1.83179H63.7179ZM49.0787 33.2312C51.0642 33.2312 52.7132 32.5581 54.0257 31.2119C55.3381 29.8321 55.9943 27.998 55.9943 25.7095C55.9943 23.421 55.3381 21.6036 54.0257 20.2575C52.7132 18.8777 51.0642 18.1877 49.0787 18.1877C47.0592 18.1877 45.3932 18.8777 44.0808 20.2575C42.7684 21.6036 42.1122 23.421 42.1122 25.7095C42.1122 27.998 42.7684 29.8321 44.0808 31.2119C45.3932 32.5581 47.0592 33.2312 49.0787 33.2312Z" fill="#2B2B2B"/>
<path d="M30.5296 12.1307V39.2897H23.0078V36.16C21.0559 38.5156 18.229 39.6937 14.527 39.6937C11.9693 39.6937 9.64712 39.1214 7.56057 37.9773C5.50766 36.8328 3.89226 35.2006 2.71436 33.0804C1.53646 30.9602 0.94751 28.5035 0.94751 25.7101C0.94751 22.9168 1.53646 20.4601 2.71436 18.3399C3.89226 16.2196 5.50766 14.5874 7.56057 13.4432C9.64712 12.2989 11.9693 11.7268 14.527 11.7268C17.9934 11.7268 20.7025 12.8206 22.6545 15.0081V12.1307H30.5296ZM15.89 33.2319C17.8756 33.2319 19.5246 32.5588 20.8372 31.2126C22.1497 29.8328 22.8059 27.9986 22.8059 25.7101C22.8059 23.4217 22.1497 21.6043 20.8372 20.2582C19.5246 18.8783 17.8756 18.1884 15.89 18.1884C13.8707 18.1884 12.2049 18.8783 10.8924 20.2582C9.57981 21.6043 8.92356 23.4217 8.92356 25.7101C8.92356 27.9986 9.57981 29.8328 10.8924 31.2126C12.2049 32.5588 13.8707 33.2319 15.89 33.2319Z" fill="#2B2B2B"/>
</g>
<defs>
<clipPath id="clip0_0_12268">
<rect width="171.892" height="40" fill="white" transform="translate(0.684326)"/>
</clipPath>
</defs>
</svg>
