<svg width="161" height="32" viewBox="0 0 161 32" fill="none" xmlns="http://www.w3.org/2000/svg">
<g clip-path="url(#clip0_0_12266)">
<path fill-rule="evenodd" clip-rule="evenodd" d="M133.334 0.5H147.021C148.277 0.5 149.485 0.643 150.645 0.929C151.806 1.215 152.891 1.619 153.9 2.142C154.91 2.665 155.832 3.2925 156.666 4.0245C157.501 4.757 158.216 5.569 158.812 6.462C159.409 7.354 159.87 8.309 160.196 9.3275C160.521 10.3455 160.684 11.405 160.684 12.5065C160.684 14.1525 160.326 15.7035 159.611 17.161C158.896 18.618 157.918 19.8905 156.678 20.9784C155.438 22.066 153.988 22.9236 152.327 23.5516C150.665 24.179 148.897 24.4926 147.021 24.4926H140.178V30.496H133.334V0.5ZM140.196 6.5V18.5065H147.338C148.243 18.5065 149.094 18.35 149.892 18.0365C150.689 17.722 151.387 17.2935 151.986 16.75C152.584 16.2055 153.055 15.568 153.401 14.8355C153.745 14.104 153.918 13.326 153.918 12.5035C153.918 11.681 153.745 10.9035 153.401 10.171C153.055 9.439 152.584 8.801 151.986 8.257C151.387 7.7135 150.689 7.2845 149.892 6.971C149.094 6.6565 148.243 6.5 147.338 6.5H140.196ZM96.7413 0.5H110.428C111.684 0.5 112.892 0.643 114.052 0.929C115.213 1.215 116.298 1.619 117.307 2.142C118.317 2.665 119.239 3.2925 120.073 4.0245C120.908 4.757 121.623 5.569 122.219 6.462C122.816 7.354 123.277 8.309 123.602 9.3275C123.928 10.3455 124.091 11.405 124.091 12.5065C124.091 14.1525 123.733 15.7035 123.018 17.161C122.302 18.618 121.325 19.8905 120.085 20.9784C118.845 22.066 117.395 22.9236 115.734 23.5516C114.072 24.179 112.304 24.4926 110.428 24.4926H103.585V30.496H96.7413V0.5ZM103.603 6.5V18.5065H110.745C111.65 18.5065 112.501 18.35 113.299 18.0365C114.096 17.722 114.794 17.2935 115.392 16.75C115.99 16.2055 116.462 15.568 116.808 14.8355C117.152 14.104 117.325 13.326 117.325 12.5035C117.325 11.681 117.152 10.9035 116.808 10.171C116.462 9.439 115.99 8.801 115.392 8.257C114.794 7.7135 114.096 7.2845 113.299 6.971C112.501 6.6565 111.65 6.5 110.745 6.5H103.603ZM76.1577 30.496H83.0011V0.500498H76.1577V30.496ZM59.0047 0.5L49.7219 12.5H46.4257V0.5H39.5645V30.4874L46.4257 30.5V18.5H49.8563L59.0047 30.4874H67.0093L55.5739 15.5L67.0093 0.5H59.0047ZM10.9378 0.5045C9.52271 0.5045 8.19565 0.7415 6.95547 1.2155C5.71531 1.6895 4.63067 2.3345 3.70041 3.1505C2.77071 3.966 2.03598 4.918 1.49509 6.0055C0.954772 7.093 0.684326 8.258 0.684326 9.499C0.684326 10.74 0.954772 11.9075 1.49509 13.0025C2.03598 14.0975 2.77071 15.0525 3.70041 15.868C4.63067 16.684 5.71531 17.329 6.95547 17.803C8.19565 18.2775 9.52271 18.514 10.9378 18.514H17.7807C18.2576 18.514 18.703 18.591 19.1158 18.7445C19.5292 18.898 19.8911 19.1105 20.201 19.3825C20.5109 19.654 20.7533 19.9715 20.9283 20.334C21.1027 20.6966 21.1901 21.0874 21.1901 21.5056C21.1901 21.924 21.1027 22.3146 20.9283 22.6766C20.7533 23.0396 20.5109 23.3566 20.201 23.629C19.8911 23.9006 19.5292 24.113 19.1158 24.2666C18.703 24.42 18.2576 24.4964 17.7807 24.4964H2.96739V30.5H17.7807C19.1959 30.5 20.5269 30.263 21.7751 29.789C23.0227 29.3144 24.1119 28.67 25.0415 27.854C25.9713 27.038 26.7025 26.0864 27.2355 24.9984C27.7677 23.911 28.0337 22.7466 28.0337 21.5056C28.0337 20.2644 27.7677 19.0965 27.2355 18.002C26.7025 16.907 25.9713 15.952 25.0415 15.136C24.1119 14.32 23.0227 13.679 21.7751 13.212C20.5269 12.7445 19.1959 12.5105 17.7807 12.5105H10.9378C10.4604 12.5105 10.0156 12.434 9.60219 12.281C9.18881 12.1275 8.82745 11.915 8.51697 11.6425C8.20707 11.371 7.96465 11.05 7.78969 10.6805C7.61473 10.311 7.52725 9.917 7.52725 9.499C7.52725 9.0805 7.61473 8.69 7.78969 8.3275C7.96465 7.965 8.20707 7.6475 8.51697 7.3755C8.82745 7.1035 9.18881 6.891 9.60219 6.7375C10.0156 6.584 10.4604 6.5075 10.9378 6.5075L25.7585 6.5035V0.5L10.9378 0.5045Z" fill="black"/>
</g>
<defs>
<clipPath id="clip0_0_12266">
<rect width="160" height="32" fill="white" transform="translate(0.684326)"/>
</clipPath>
</defs>
</svg>
